G04 #@! TF.GenerationSoftware,KiCad,Pcbnew,(6.0.7)*
G04 #@! TF.CreationDate,2022-11-13T23:20:38+00:00*
G04 #@! TF.ProjectId,A3010PoduleCarrier,41333031-3050-46f6-9475-6c6543617272,01a*
G04 #@! TF.SameCoordinates,Original*
G04 #@! TF.FileFunction,Legend,Top*
G04 #@! TF.FilePolarity,Positive*
%FSLAX46Y46*%
G04 Gerber Fmt 4.6, Leading zero omitted, Abs format (unit mm)*
G04 Created by KiCad (PCBNEW (6.0.7)) date 2022-11-13 23:20:38*
%MOMM*%
%LPD*%
G01*
G04 APERTURE LIST*
%ADD10C,0.150000*%
%ADD11C,0.200000*%
%ADD12C,0.250000*%
%ADD13C,0.300000*%
%ADD14C,0.120000*%
%ADD15C,0.304800*%
G04 APERTURE END LIST*
D10*
X99174000Y-63111000D02*
X77838000Y-63111000D01*
D11*
X220306000Y-63175000D02*
G75*
G03*
X216806000Y-59675000I-3500000J0D01*
G01*
X78426000Y-105470000D02*
X78426000Y-76470000D01*
X216806000Y-59675000D02*
X138806000Y-59675000D01*
X217426000Y-108470000D02*
G75*
G03*
X220426000Y-105470000I0J3000000D01*
G01*
D12*
X98666000Y-70731000D02*
X98666000Y-63619000D01*
X98666000Y-63619000D02*
X78346000Y-63619000D01*
D11*
X135306000Y-112175000D02*
X135306000Y-63175000D01*
X135306000Y-112175000D02*
G75*
G03*
X138806000Y-115675000I3500000J0D01*
G01*
X81426000Y-108470000D02*
X217426000Y-108470000D01*
X216806000Y-115675000D02*
X138806000Y-115675000D01*
X220426000Y-105470000D02*
X220426000Y-76470000D01*
X81426000Y-73470000D02*
X217426000Y-73470000D01*
X78426000Y-105470000D02*
G75*
G03*
X81426000Y-108470000I3000000J0D01*
G01*
D10*
X77838000Y-71239000D02*
X99174000Y-71239000D01*
X99174000Y-71239000D02*
X99174000Y-63111000D01*
D11*
X220306000Y-63175000D02*
X220306000Y-112175000D01*
X220426000Y-76470000D02*
G75*
G03*
X217426000Y-73470000I-3000000J0D01*
G01*
D12*
X78346000Y-70731000D02*
X98666000Y-70731000D01*
D11*
X216806000Y-115675000D02*
G75*
G03*
X220306000Y-112175000I0J3500000D01*
G01*
D12*
X78346000Y-63619000D02*
X78346000Y-70731000D01*
D11*
X81426000Y-73470000D02*
G75*
G03*
X78426000Y-76470000I0J-3000000D01*
G01*
D10*
X77838000Y-63111000D02*
X77838000Y-71239000D01*
D11*
X138806000Y-59675000D02*
G75*
G03*
X135306000Y-63175000I0J-3500000D01*
G01*
D13*
X193069809Y-64873333D02*
X194022190Y-64873333D01*
X192879333Y-65444761D02*
X193546000Y-63444761D01*
X194212666Y-65444761D01*
X194879333Y-65444761D02*
X194879333Y-63444761D01*
X195355523Y-63444761D01*
X195641238Y-63540000D01*
X195831714Y-63730476D01*
X195926952Y-63920952D01*
X196022190Y-64301904D01*
X196022190Y-64587619D01*
X195926952Y-64968571D01*
X195831714Y-65159047D01*
X195641238Y-65349523D01*
X195355523Y-65444761D01*
X194879333Y-65444761D01*
X197546000Y-64397142D02*
X196879333Y-64397142D01*
X196879333Y-65444761D02*
X196879333Y-63444761D01*
X197831714Y-63444761D01*
X198593619Y-64682857D02*
X200117428Y-64682857D01*
X202117428Y-65444761D02*
X200974571Y-65444761D01*
X201546000Y-65444761D02*
X201546000Y-63444761D01*
X201355523Y-63730476D01*
X201165047Y-63920952D01*
X200974571Y-64016190D01*
X203355523Y-63444761D02*
X203546000Y-63444761D01*
X203736476Y-63540000D01*
X203831714Y-63635238D01*
X203926952Y-63825714D01*
X204022190Y-64206666D01*
X204022190Y-64682857D01*
X203926952Y-65063809D01*
X203831714Y-65254285D01*
X203736476Y-65349523D01*
X203546000Y-65444761D01*
X203355523Y-65444761D01*
X203165047Y-65349523D01*
X203069809Y-65254285D01*
X202974571Y-65063809D01*
X202879333Y-64682857D01*
X202879333Y-64206666D01*
X202974571Y-63825714D01*
X203069809Y-63635238D01*
X203165047Y-63540000D01*
X203355523Y-63444761D01*
X188022190Y-67617142D02*
X188688857Y-67617142D01*
X188974571Y-68664761D02*
X188022190Y-68664761D01*
X188022190Y-66664761D01*
X188974571Y-66664761D01*
X190688857Y-68569523D02*
X190498380Y-68664761D01*
X190117428Y-68664761D01*
X189926952Y-68569523D01*
X189831714Y-68474285D01*
X189736476Y-68283809D01*
X189736476Y-67712380D01*
X189831714Y-67521904D01*
X189926952Y-67426666D01*
X190117428Y-67331428D01*
X190498380Y-67331428D01*
X190688857Y-67426666D01*
X191831714Y-68664761D02*
X191641238Y-68569523D01*
X191546000Y-68474285D01*
X191450761Y-68283809D01*
X191450761Y-67712380D01*
X191546000Y-67521904D01*
X191641238Y-67426666D01*
X191831714Y-67331428D01*
X192117428Y-67331428D01*
X192307904Y-67426666D01*
X192403142Y-67521904D01*
X192498380Y-67712380D01*
X192498380Y-68283809D01*
X192403142Y-68474285D01*
X192307904Y-68569523D01*
X192117428Y-68664761D01*
X191831714Y-68664761D01*
X193355523Y-67331428D02*
X193355523Y-68664761D01*
X193355523Y-67521904D02*
X193450761Y-67426666D01*
X193641238Y-67331428D01*
X193926952Y-67331428D01*
X194117428Y-67426666D01*
X194212666Y-67617142D01*
X194212666Y-68664761D01*
X195926952Y-68569523D02*
X195736476Y-68664761D01*
X195355523Y-68664761D01*
X195165047Y-68569523D01*
X195069809Y-68379047D01*
X195069809Y-67617142D01*
X195165047Y-67426666D01*
X195355523Y-67331428D01*
X195736476Y-67331428D01*
X195926952Y-67426666D01*
X196022190Y-67617142D01*
X196022190Y-67807619D01*
X195069809Y-67998095D01*
X196593619Y-67331428D02*
X197355523Y-67331428D01*
X196879333Y-66664761D02*
X196879333Y-68379047D01*
X196974571Y-68569523D01*
X197165047Y-68664761D01*
X197355523Y-68664761D01*
X199546000Y-68664761D02*
X199546000Y-66664761D01*
X200212666Y-68093333D01*
X200879333Y-66664761D01*
X200879333Y-68664761D01*
X202117428Y-68664761D02*
X201926952Y-68569523D01*
X201831714Y-68474285D01*
X201736476Y-68283809D01*
X201736476Y-67712380D01*
X201831714Y-67521904D01*
X201926952Y-67426666D01*
X202117428Y-67331428D01*
X202403142Y-67331428D01*
X202593619Y-67426666D01*
X202688857Y-67521904D01*
X202784095Y-67712380D01*
X202784095Y-68283809D01*
X202688857Y-68474285D01*
X202593619Y-68569523D01*
X202403142Y-68664761D01*
X202117428Y-68664761D01*
X204498380Y-68664761D02*
X204498380Y-66664761D01*
X204498380Y-68569523D02*
X204307904Y-68664761D01*
X203926952Y-68664761D01*
X203736476Y-68569523D01*
X203641238Y-68474285D01*
X203546000Y-68283809D01*
X203546000Y-67712380D01*
X203641238Y-67521904D01*
X203736476Y-67426666D01*
X203926952Y-67331428D01*
X204307904Y-67331428D01*
X204498380Y-67426666D01*
X206307904Y-67331428D02*
X206307904Y-68664761D01*
X205450761Y-67331428D02*
X205450761Y-68379047D01*
X205546000Y-68569523D01*
X205736476Y-68664761D01*
X206022190Y-68664761D01*
X206212666Y-68569523D01*
X206307904Y-68474285D01*
X207546000Y-68664761D02*
X207355523Y-68569523D01*
X207260285Y-68379047D01*
X207260285Y-66664761D01*
X209069809Y-68569523D02*
X208879333Y-68664761D01*
X208498380Y-68664761D01*
X208307904Y-68569523D01*
X208212666Y-68379047D01*
X208212666Y-67617142D01*
X208307904Y-67426666D01*
X208498380Y-67331428D01*
X208879333Y-67331428D01*
X209069809Y-67426666D01*
X209165047Y-67617142D01*
X209165047Y-67807619D01*
X208212666Y-67998095D01*
D10*
X75242666Y-54927380D02*
X74909333Y-54451190D01*
X74671238Y-54927380D02*
X74671238Y-53927380D01*
X75052190Y-53927380D01*
X75147428Y-53975000D01*
X75195047Y-54022619D01*
X75242666Y-54117857D01*
X75242666Y-54260714D01*
X75195047Y-54355952D01*
X75147428Y-54403571D01*
X75052190Y-54451190D01*
X74671238Y-54451190D01*
X76052190Y-54879761D02*
X75956952Y-54927380D01*
X75766476Y-54927380D01*
X75671238Y-54879761D01*
X75623619Y-54784523D01*
X75623619Y-54403571D01*
X75671238Y-54308333D01*
X75766476Y-54260714D01*
X75956952Y-54260714D01*
X76052190Y-54308333D01*
X76099809Y-54403571D01*
X76099809Y-54498809D01*
X75623619Y-54594047D01*
X76433142Y-54260714D02*
X76671238Y-54927380D01*
X76909333Y-54260714D01*
X78242666Y-53927380D02*
X78337904Y-53927380D01*
X78433142Y-53975000D01*
X78480761Y-54022619D01*
X78528380Y-54117857D01*
X78576000Y-54308333D01*
X78576000Y-54546428D01*
X78528380Y-54736904D01*
X78480761Y-54832142D01*
X78433142Y-54879761D01*
X78337904Y-54927380D01*
X78242666Y-54927380D01*
X78147428Y-54879761D01*
X78099809Y-54832142D01*
X78052190Y-54736904D01*
X78004571Y-54546428D01*
X78004571Y-54308333D01*
X78052190Y-54117857D01*
X78099809Y-54022619D01*
X78147428Y-53975000D01*
X78242666Y-53927380D01*
X79528380Y-54927380D02*
X78956952Y-54927380D01*
X79242666Y-54927380D02*
X79242666Y-53927380D01*
X79147428Y-54070238D01*
X79052190Y-54165476D01*
X78956952Y-54213095D01*
D13*
X80982190Y-64945952D02*
X80791714Y-64850714D01*
X80410761Y-64850714D01*
X80220285Y-64945952D01*
X80029809Y-65136428D01*
X79934571Y-65326904D01*
X79934571Y-65707857D01*
X80029809Y-65898333D01*
X80220285Y-66088809D01*
X80410761Y-66184047D01*
X80791714Y-66184047D01*
X80982190Y-66088809D01*
X80601238Y-64184047D02*
X80125047Y-64279285D01*
X79648857Y-64565000D01*
X79363142Y-65041190D01*
X79267904Y-65517380D01*
X79363142Y-65993571D01*
X79648857Y-66469761D01*
X80125047Y-66755476D01*
X80601238Y-66850714D01*
X81077428Y-66755476D01*
X81553619Y-66469761D01*
X81839333Y-65993571D01*
X81934571Y-65517380D01*
X81839333Y-65041190D01*
X81553619Y-64565000D01*
X81077428Y-64279285D01*
X80601238Y-64184047D01*
X84315523Y-66469761D02*
X84315523Y-64469761D01*
X85458380Y-66469761D02*
X84601238Y-65326904D01*
X85458380Y-64469761D02*
X84315523Y-65612619D01*
X87077428Y-66374523D02*
X86886952Y-66469761D01*
X86506000Y-66469761D01*
X86315523Y-66374523D01*
X86220285Y-66184047D01*
X86220285Y-65422142D01*
X86315523Y-65231666D01*
X86506000Y-65136428D01*
X86886952Y-65136428D01*
X87077428Y-65231666D01*
X87172666Y-65422142D01*
X87172666Y-65612619D01*
X86220285Y-65803095D01*
X88029809Y-65136428D02*
X88029809Y-66469761D01*
X88029809Y-65326904D02*
X88125047Y-65231666D01*
X88315523Y-65136428D01*
X88601238Y-65136428D01*
X88791714Y-65231666D01*
X88886952Y-65422142D01*
X88886952Y-66469761D01*
X92315523Y-66469761D02*
X91363142Y-66469761D01*
X91363142Y-64469761D01*
X93267904Y-66469761D02*
X93077428Y-66374523D01*
X92982190Y-66279285D01*
X92886952Y-66088809D01*
X92886952Y-65517380D01*
X92982190Y-65326904D01*
X93077428Y-65231666D01*
X93267904Y-65136428D01*
X93553619Y-65136428D01*
X93744095Y-65231666D01*
X93839333Y-65326904D01*
X93934571Y-65517380D01*
X93934571Y-66088809D01*
X93839333Y-66279285D01*
X93744095Y-66374523D01*
X93553619Y-66469761D01*
X93267904Y-66469761D01*
X94601238Y-65136428D02*
X94982190Y-66469761D01*
X95363142Y-65517380D01*
X95744095Y-66469761D01*
X96125047Y-65136428D01*
X97648857Y-66374523D02*
X97458380Y-66469761D01*
X97077428Y-66469761D01*
X96886952Y-66374523D01*
X96791714Y-66184047D01*
X96791714Y-65422142D01*
X96886952Y-65231666D01*
X97077428Y-65136428D01*
X97458380Y-65136428D01*
X97648857Y-65231666D01*
X97744095Y-65422142D01*
X97744095Y-65612619D01*
X96791714Y-65803095D01*
X81696476Y-69689761D02*
X81696476Y-67689761D01*
X82839333Y-69689761D01*
X82839333Y-67689761D01*
X84077428Y-69689761D02*
X83886952Y-69594523D01*
X83791714Y-69499285D01*
X83696476Y-69308809D01*
X83696476Y-68737380D01*
X83791714Y-68546904D01*
X83886952Y-68451666D01*
X84077428Y-68356428D01*
X84363142Y-68356428D01*
X84553619Y-68451666D01*
X84648857Y-68546904D01*
X84744095Y-68737380D01*
X84744095Y-69308809D01*
X84648857Y-69499285D01*
X84553619Y-69594523D01*
X84363142Y-69689761D01*
X84077428Y-69689761D01*
X85410761Y-68356428D02*
X85886952Y-69689761D01*
X86363142Y-68356428D01*
X88553619Y-67880238D02*
X88648857Y-67785000D01*
X88839333Y-67689761D01*
X89315523Y-67689761D01*
X89506000Y-67785000D01*
X89601238Y-67880238D01*
X89696476Y-68070714D01*
X89696476Y-68261190D01*
X89601238Y-68546904D01*
X88458380Y-69689761D01*
X89696476Y-69689761D01*
X90934571Y-67689761D02*
X91125047Y-67689761D01*
X91315523Y-67785000D01*
X91410761Y-67880238D01*
X91506000Y-68070714D01*
X91601238Y-68451666D01*
X91601238Y-68927857D01*
X91506000Y-69308809D01*
X91410761Y-69499285D01*
X91315523Y-69594523D01*
X91125047Y-69689761D01*
X90934571Y-69689761D01*
X90744095Y-69594523D01*
X90648857Y-69499285D01*
X90553619Y-69308809D01*
X90458380Y-68927857D01*
X90458380Y-68451666D01*
X90553619Y-68070714D01*
X90648857Y-67880238D01*
X90744095Y-67785000D01*
X90934571Y-67689761D01*
X92363142Y-67880238D02*
X92458380Y-67785000D01*
X92648857Y-67689761D01*
X93125047Y-67689761D01*
X93315523Y-67785000D01*
X93410761Y-67880238D01*
X93506000Y-68070714D01*
X93506000Y-68261190D01*
X93410761Y-68546904D01*
X92267904Y-69689761D01*
X93506000Y-69689761D01*
X94267904Y-67880238D02*
X94363142Y-67785000D01*
X94553619Y-67689761D01*
X95029809Y-67689761D01*
X95220285Y-67785000D01*
X95315523Y-67880238D01*
X95410761Y-68070714D01*
X95410761Y-68261190D01*
X95315523Y-68546904D01*
X94172666Y-69689761D01*
X95410761Y-69689761D01*
D10*
X77798380Y-114484404D02*
X78798380Y-114246309D01*
X78084095Y-114055833D01*
X78798380Y-113865357D01*
X77798380Y-113627261D01*
X78798380Y-113246309D02*
X77798380Y-113246309D01*
X78179333Y-113246309D02*
X78131714Y-113151071D01*
X78131714Y-112960595D01*
X78179333Y-112865357D01*
X78226952Y-112817738D01*
X78322190Y-112770119D01*
X78607904Y-112770119D01*
X78703142Y-112817738D01*
X78750761Y-112865357D01*
X78798380Y-112960595D01*
X78798380Y-113151071D01*
X78750761Y-113246309D01*
X78750761Y-111960595D02*
X78798380Y-112055833D01*
X78798380Y-112246309D01*
X78750761Y-112341547D01*
X78655523Y-112389166D01*
X78274571Y-112389166D01*
X78179333Y-112341547D01*
X78131714Y-112246309D01*
X78131714Y-112055833D01*
X78179333Y-111960595D01*
X78274571Y-111912976D01*
X78369809Y-111912976D01*
X78465047Y-112389166D01*
X76210761Y-113436785D02*
X76258380Y-113293928D01*
X76258380Y-113055833D01*
X76210761Y-112960595D01*
X76163142Y-112912976D01*
X76067904Y-112865357D01*
X75972666Y-112865357D01*
X75877428Y-112912976D01*
X75829809Y-112960595D01*
X75782190Y-113055833D01*
X75734571Y-113246309D01*
X75686952Y-113341547D01*
X75639333Y-113389166D01*
X75544095Y-113436785D01*
X75448857Y-113436785D01*
X75353619Y-113389166D01*
X75306000Y-113341547D01*
X75258380Y-113246309D01*
X75258380Y-113008214D01*
X75306000Y-112865357D01*
X75353619Y-112484404D02*
X75306000Y-112436785D01*
X75258380Y-112341547D01*
X75258380Y-112103452D01*
X75306000Y-112008214D01*
X75353619Y-111960595D01*
X75448857Y-111912976D01*
X75544095Y-111912976D01*
X75686952Y-111960595D01*
X76258380Y-112532023D01*
X76258380Y-111912976D01*
D13*
X95784095Y-92054761D02*
X95784095Y-90054761D01*
X96736476Y-92054761D02*
X96736476Y-90054761D01*
X97212666Y-90054761D01*
X97498380Y-90150000D01*
X97688857Y-90340476D01*
X97784095Y-90530952D01*
X97879333Y-90911904D01*
X97879333Y-91197619D01*
X97784095Y-91578571D01*
X97688857Y-91769047D01*
X97498380Y-91959523D01*
X97212666Y-92054761D01*
X96736476Y-92054761D01*
X98736476Y-91007142D02*
X99403142Y-91007142D01*
X99688857Y-92054761D02*
X98736476Y-92054761D01*
X98736476Y-90054761D01*
X99688857Y-90054761D01*
X102069809Y-92054761D02*
X102069809Y-90054761D01*
X102831714Y-90054761D01*
X103022190Y-90150000D01*
X103117428Y-90245238D01*
X103212666Y-90435714D01*
X103212666Y-90721428D01*
X103117428Y-90911904D01*
X103022190Y-91007142D01*
X102831714Y-91102380D01*
X102069809Y-91102380D01*
X104355523Y-92054761D02*
X104165047Y-91959523D01*
X104069809Y-91864285D01*
X103974571Y-91673809D01*
X103974571Y-91102380D01*
X104069809Y-90911904D01*
X104165047Y-90816666D01*
X104355523Y-90721428D01*
X104641238Y-90721428D01*
X104831714Y-90816666D01*
X104926952Y-90911904D01*
X105022190Y-91102380D01*
X105022190Y-91673809D01*
X104926952Y-91864285D01*
X104831714Y-91959523D01*
X104641238Y-92054761D01*
X104355523Y-92054761D01*
X106736476Y-92054761D02*
X106736476Y-90054761D01*
X106736476Y-91959523D02*
X106546000Y-92054761D01*
X106165047Y-92054761D01*
X105974571Y-91959523D01*
X105879333Y-91864285D01*
X105784095Y-91673809D01*
X105784095Y-91102380D01*
X105879333Y-90911904D01*
X105974571Y-90816666D01*
X106165047Y-90721428D01*
X106546000Y-90721428D01*
X106736476Y-90816666D01*
X108546000Y-90721428D02*
X108546000Y-92054761D01*
X107688857Y-90721428D02*
X107688857Y-91769047D01*
X107784095Y-91959523D01*
X107974571Y-92054761D01*
X108260285Y-92054761D01*
X108450761Y-91959523D01*
X108546000Y-91864285D01*
X109784095Y-92054761D02*
X109593619Y-91959523D01*
X109498380Y-91769047D01*
X109498380Y-90054761D01*
X111307904Y-91959523D02*
X111117428Y-92054761D01*
X110736476Y-92054761D01*
X110546000Y-91959523D01*
X110450761Y-91769047D01*
X110450761Y-91007142D01*
X110546000Y-90816666D01*
X110736476Y-90721428D01*
X111117428Y-90721428D01*
X111307904Y-90816666D01*
X111403142Y-91007142D01*
X111403142Y-91197619D01*
X110450761Y-91388095D01*
D10*
X80814571Y-114341547D02*
X80814571Y-114008214D01*
X81338380Y-113865357D02*
X81338380Y-114341547D01*
X80338380Y-114341547D01*
X80338380Y-113865357D01*
X80671714Y-113579642D02*
X80671714Y-113198690D01*
X81338380Y-113436785D02*
X80481238Y-113436785D01*
X80386000Y-113389166D01*
X80338380Y-113293928D01*
X80338380Y-113198690D01*
X81338380Y-112865357D02*
X80671714Y-112865357D01*
X80338380Y-112865357D02*
X80386000Y-112912976D01*
X80433619Y-112865357D01*
X80386000Y-112817738D01*
X80338380Y-112865357D01*
X80433619Y-112865357D01*
X80671714Y-111960595D02*
X81671714Y-111960595D01*
X81290761Y-111960595D02*
X81338380Y-112055833D01*
X81338380Y-112246309D01*
X81290761Y-112341547D01*
X81243142Y-112389166D01*
X81147904Y-112436785D01*
X80862190Y-112436785D01*
X80766952Y-112389166D01*
X80719333Y-112341547D01*
X80671714Y-112246309D01*
X80671714Y-112055833D01*
X80719333Y-111960595D01*
X214917309Y-105997380D02*
X214917309Y-106711666D01*
X214869690Y-106854523D01*
X214774452Y-106949761D01*
X214631595Y-106997380D01*
X214536357Y-106997380D01*
X215441119Y-106997380D02*
X215631595Y-106997380D01*
X215726833Y-106949761D01*
X215774452Y-106902142D01*
X215869690Y-106759285D01*
X215917309Y-106568809D01*
X215917309Y-106187857D01*
X215869690Y-106092619D01*
X215822071Y-106045000D01*
X215726833Y-105997380D01*
X215536357Y-105997380D01*
X215441119Y-106045000D01*
X215393500Y-106092619D01*
X215345880Y-106187857D01*
X215345880Y-106425952D01*
X215393500Y-106521190D01*
X215441119Y-106568809D01*
X215536357Y-106616428D01*
X215726833Y-106616428D01*
X215822071Y-106568809D01*
X215869690Y-106521190D01*
X215917309Y-106425952D01*
X216107785Y-107092619D02*
X216869690Y-107092619D01*
X217441119Y-106473571D02*
X217583976Y-106521190D01*
X217631595Y-106568809D01*
X217679214Y-106664047D01*
X217679214Y-106806904D01*
X217631595Y-106902142D01*
X217583976Y-106949761D01*
X217488738Y-106997380D01*
X217107785Y-106997380D01*
X217107785Y-105997380D01*
X217441119Y-105997380D01*
X217536357Y-106045000D01*
X217583976Y-106092619D01*
X217631595Y-106187857D01*
X217631595Y-106283095D01*
X217583976Y-106378333D01*
X217536357Y-106425952D01*
X217441119Y-106473571D01*
X217107785Y-106473571D01*
X218631595Y-106997380D02*
X218060166Y-106997380D01*
X218345880Y-106997380D02*
X218345880Y-105997380D01*
X218250642Y-106140238D01*
X218155404Y-106235476D01*
X218060166Y-106283095D01*
X138885523Y-109807380D02*
X138885523Y-110521666D01*
X138837904Y-110664523D01*
X138742666Y-110759761D01*
X138599809Y-110807380D01*
X138504571Y-110807380D01*
X139314095Y-109902619D02*
X139361714Y-109855000D01*
X139456952Y-109807380D01*
X139695047Y-109807380D01*
X139790285Y-109855000D01*
X139837904Y-109902619D01*
X139885523Y-109997857D01*
X139885523Y-110093095D01*
X139837904Y-110235952D01*
X139266476Y-110807380D01*
X139885523Y-110807380D01*
X140076000Y-110902619D02*
X140837904Y-110902619D01*
X141647428Y-110712142D02*
X141599809Y-110759761D01*
X141456952Y-110807380D01*
X141361714Y-110807380D01*
X141218857Y-110759761D01*
X141123619Y-110664523D01*
X141076000Y-110569285D01*
X141028380Y-110378809D01*
X141028380Y-110235952D01*
X141076000Y-110045476D01*
X141123619Y-109950238D01*
X141218857Y-109855000D01*
X141361714Y-109807380D01*
X141456952Y-109807380D01*
X141599809Y-109855000D01*
X141647428Y-109902619D01*
X142599809Y-110807380D02*
X142028380Y-110807380D01*
X142314095Y-110807380D02*
X142314095Y-109807380D01*
X142218857Y-109950238D01*
X142123619Y-110045476D01*
X142028380Y-110093095D01*
X130941595Y-118697380D02*
X130941595Y-119411666D01*
X130893976Y-119554523D01*
X130798738Y-119649761D01*
X130655880Y-119697380D01*
X130560642Y-119697380D01*
X131322547Y-118697380D02*
X131989214Y-118697380D01*
X131560642Y-119697380D01*
X132132071Y-119792619D02*
X132893976Y-119792619D01*
X133084452Y-119411666D02*
X133560642Y-119411666D01*
X132989214Y-119697380D02*
X133322547Y-118697380D01*
X133655880Y-119697380D01*
X134513023Y-119697380D02*
X133941595Y-119697380D01*
X134227309Y-119697380D02*
X134227309Y-118697380D01*
X134132071Y-118840238D01*
X134036833Y-118935476D01*
X133941595Y-118983095D01*
X165387309Y-118697380D02*
X165387309Y-119411666D01*
X165339690Y-119554523D01*
X165244452Y-119649761D01*
X165101595Y-119697380D01*
X165006357Y-119697380D01*
X166006357Y-119125952D02*
X165911119Y-119078333D01*
X165863500Y-119030714D01*
X165815880Y-118935476D01*
X165815880Y-118887857D01*
X165863500Y-118792619D01*
X165911119Y-118745000D01*
X166006357Y-118697380D01*
X166196833Y-118697380D01*
X166292071Y-118745000D01*
X166339690Y-118792619D01*
X166387309Y-118887857D01*
X166387309Y-118935476D01*
X166339690Y-119030714D01*
X166292071Y-119078333D01*
X166196833Y-119125952D01*
X166006357Y-119125952D01*
X165911119Y-119173571D01*
X165863500Y-119221190D01*
X165815880Y-119316428D01*
X165815880Y-119506904D01*
X165863500Y-119602142D01*
X165911119Y-119649761D01*
X166006357Y-119697380D01*
X166196833Y-119697380D01*
X166292071Y-119649761D01*
X166339690Y-119602142D01*
X166387309Y-119506904D01*
X166387309Y-119316428D01*
X166339690Y-119221190D01*
X166292071Y-119173571D01*
X166196833Y-119125952D01*
X166577785Y-119792619D02*
X167339690Y-119792619D01*
X167530166Y-119411666D02*
X168006357Y-119411666D01*
X167434928Y-119697380D02*
X167768261Y-118697380D01*
X168101595Y-119697380D01*
X168958738Y-119697380D02*
X168387309Y-119697380D01*
X168673023Y-119697380D02*
X168673023Y-118697380D01*
X168577785Y-118840238D01*
X168482547Y-118935476D01*
X168387309Y-118983095D01*
X124655523Y-71301600D02*
X124655523Y-72015886D01*
X124607904Y-72158743D01*
X124512666Y-72253981D01*
X124369809Y-72301600D01*
X124274571Y-72301600D01*
X125036476Y-71301600D02*
X125655523Y-71301600D01*
X125322190Y-71682553D01*
X125465047Y-71682553D01*
X125560285Y-71730172D01*
X125607904Y-71777791D01*
X125655523Y-71873029D01*
X125655523Y-72111124D01*
X125607904Y-72206362D01*
X125560285Y-72253981D01*
X125465047Y-72301600D01*
X125179333Y-72301600D01*
X125084095Y-72253981D01*
X125036476Y-72206362D01*
X125846000Y-72396839D02*
X126607904Y-72396839D01*
X127417428Y-72206362D02*
X127369809Y-72253981D01*
X127226952Y-72301600D01*
X127131714Y-72301600D01*
X126988857Y-72253981D01*
X126893619Y-72158743D01*
X126846000Y-72063505D01*
X126798380Y-71873029D01*
X126798380Y-71730172D01*
X126846000Y-71539696D01*
X126893619Y-71444458D01*
X126988857Y-71349220D01*
X127131714Y-71301600D01*
X127226952Y-71301600D01*
X127369809Y-71349220D01*
X127417428Y-71396839D01*
X128369809Y-72301600D02*
X127798380Y-72301600D01*
X128084095Y-72301600D02*
X128084095Y-71301600D01*
X127988857Y-71444458D01*
X127893619Y-71539696D01*
X127798380Y-71587315D01*
X176709452Y-76279380D02*
X176709452Y-76993666D01*
X176661833Y-77136523D01*
X176566595Y-77231761D01*
X176423738Y-77279380D01*
X176328500Y-77279380D01*
X177614214Y-76612714D02*
X177614214Y-77279380D01*
X177376119Y-76231761D02*
X177138023Y-76946047D01*
X177757071Y-76946047D01*
X177899928Y-77374619D02*
X178661833Y-77374619D01*
X179376119Y-77279380D02*
X178899928Y-77279380D01*
X178899928Y-76279380D01*
X179709452Y-76755571D02*
X180042785Y-76755571D01*
X180185642Y-77279380D02*
X179709452Y-77279380D01*
X179709452Y-76279380D01*
X180185642Y-76279380D01*
X180614214Y-77279380D02*
X180614214Y-76279380D01*
X180852309Y-76279380D01*
X180995166Y-76327000D01*
X181090404Y-76422238D01*
X181138023Y-76517476D01*
X181185642Y-76707952D01*
X181185642Y-76850809D01*
X181138023Y-77041285D01*
X181090404Y-77136523D01*
X180995166Y-77231761D01*
X180852309Y-77279380D01*
X180614214Y-77279380D01*
X182138023Y-77279380D02*
X181566595Y-77279380D01*
X181852309Y-77279380D02*
X181852309Y-76279380D01*
X181757071Y-76422238D01*
X181661833Y-76517476D01*
X181566595Y-76565095D01*
X181897309Y-66627380D02*
X181897309Y-67341666D01*
X181849690Y-67484523D01*
X181754452Y-67579761D01*
X181611595Y-67627380D01*
X181516357Y-67627380D01*
X182849690Y-66627380D02*
X182373500Y-66627380D01*
X182325880Y-67103571D01*
X182373500Y-67055952D01*
X182468738Y-67008333D01*
X182706833Y-67008333D01*
X182802071Y-67055952D01*
X182849690Y-67103571D01*
X182897309Y-67198809D01*
X182897309Y-67436904D01*
X182849690Y-67532142D01*
X182802071Y-67579761D01*
X182706833Y-67627380D01*
X182468738Y-67627380D01*
X182373500Y-67579761D01*
X182325880Y-67532142D01*
X183087785Y-67722619D02*
X183849690Y-67722619D01*
X184659214Y-67532142D02*
X184611595Y-67579761D01*
X184468738Y-67627380D01*
X184373500Y-67627380D01*
X184230642Y-67579761D01*
X184135404Y-67484523D01*
X184087785Y-67389285D01*
X184040166Y-67198809D01*
X184040166Y-67055952D01*
X184087785Y-66865476D01*
X184135404Y-66770238D01*
X184230642Y-66675000D01*
X184373500Y-66627380D01*
X184468738Y-66627380D01*
X184611595Y-66675000D01*
X184659214Y-66722619D01*
X185611595Y-67627380D02*
X185040166Y-67627380D01*
X185325880Y-67627380D02*
X185325880Y-66627380D01*
X185230642Y-66770238D01*
X185135404Y-66865476D01*
X185040166Y-66913095D01*
X95426952Y-59962380D02*
X94950761Y-59962380D01*
X94950761Y-58962380D01*
X95760285Y-59438571D02*
X96093619Y-59438571D01*
X96236476Y-59962380D02*
X95760285Y-59962380D01*
X95760285Y-58962380D01*
X96236476Y-58962380D01*
X96665047Y-59962380D02*
X96665047Y-58962380D01*
X96903142Y-58962380D01*
X97046000Y-59010000D01*
X97141238Y-59105238D01*
X97188857Y-59200476D01*
X97236476Y-59390952D01*
X97236476Y-59533809D01*
X97188857Y-59724285D01*
X97141238Y-59819523D01*
X97046000Y-59914761D01*
X96903142Y-59962380D01*
X96665047Y-59962380D01*
X98188857Y-59962380D02*
X97617428Y-59962380D01*
X97903142Y-59962380D02*
X97903142Y-58962380D01*
X97807904Y-59105238D01*
X97712666Y-59200476D01*
X97617428Y-59248095D01*
X214917309Y-118697380D02*
X214917309Y-119411666D01*
X214869690Y-119554523D01*
X214774452Y-119649761D01*
X214631595Y-119697380D01*
X214536357Y-119697380D01*
X215441119Y-119697380D02*
X215631595Y-119697380D01*
X215726833Y-119649761D01*
X215774452Y-119602142D01*
X215869690Y-119459285D01*
X215917309Y-119268809D01*
X215917309Y-118887857D01*
X215869690Y-118792619D01*
X215822071Y-118745000D01*
X215726833Y-118697380D01*
X215536357Y-118697380D01*
X215441119Y-118745000D01*
X215393500Y-118792619D01*
X215345880Y-118887857D01*
X215345880Y-119125952D01*
X215393500Y-119221190D01*
X215441119Y-119268809D01*
X215536357Y-119316428D01*
X215726833Y-119316428D01*
X215822071Y-119268809D01*
X215869690Y-119221190D01*
X215917309Y-119125952D01*
X216107785Y-119792619D02*
X216869690Y-119792619D01*
X217060166Y-119411666D02*
X217536357Y-119411666D01*
X216964928Y-119697380D02*
X217298261Y-118697380D01*
X217631595Y-119697380D01*
X218488738Y-119697380D02*
X217917309Y-119697380D01*
X218203023Y-119697380D02*
X218203023Y-118697380D01*
X218107785Y-118840238D01*
X218012547Y-118935476D01*
X217917309Y-118983095D01*
X80633738Y-105997380D02*
X80633738Y-106711666D01*
X80586119Y-106854523D01*
X80490880Y-106949761D01*
X80348023Y-106997380D01*
X80252785Y-106997380D01*
X81586119Y-105997380D02*
X81109928Y-105997380D01*
X81062309Y-106473571D01*
X81109928Y-106425952D01*
X81205166Y-106378333D01*
X81443261Y-106378333D01*
X81538500Y-106425952D01*
X81586119Y-106473571D01*
X81633738Y-106568809D01*
X81633738Y-106806904D01*
X81586119Y-106902142D01*
X81538500Y-106949761D01*
X81443261Y-106997380D01*
X81205166Y-106997380D01*
X81109928Y-106949761D01*
X81062309Y-106902142D01*
X81824214Y-107092619D02*
X82586119Y-107092619D01*
X83157547Y-106473571D02*
X83300404Y-106521190D01*
X83348023Y-106568809D01*
X83395642Y-106664047D01*
X83395642Y-106806904D01*
X83348023Y-106902142D01*
X83300404Y-106949761D01*
X83205166Y-106997380D01*
X82824214Y-106997380D01*
X82824214Y-105997380D01*
X83157547Y-105997380D01*
X83252785Y-106045000D01*
X83300404Y-106092619D01*
X83348023Y-106187857D01*
X83348023Y-106283095D01*
X83300404Y-106378333D01*
X83252785Y-106425952D01*
X83157547Y-106473571D01*
X82824214Y-106473571D01*
X84348023Y-106997380D02*
X83776595Y-106997380D01*
X84062309Y-106997380D02*
X84062309Y-105997380D01*
X83967071Y-106140238D01*
X83871833Y-106235476D01*
X83776595Y-106283095D01*
X80776595Y-118697380D02*
X80776595Y-119411666D01*
X80728976Y-119554523D01*
X80633738Y-119649761D01*
X80490880Y-119697380D01*
X80395642Y-119697380D01*
X81728976Y-118697380D02*
X81252785Y-118697380D01*
X81205166Y-119173571D01*
X81252785Y-119125952D01*
X81348023Y-119078333D01*
X81586119Y-119078333D01*
X81681357Y-119125952D01*
X81728976Y-119173571D01*
X81776595Y-119268809D01*
X81776595Y-119506904D01*
X81728976Y-119602142D01*
X81681357Y-119649761D01*
X81586119Y-119697380D01*
X81348023Y-119697380D01*
X81252785Y-119649761D01*
X81205166Y-119602142D01*
X81967071Y-119792619D02*
X82728976Y-119792619D01*
X82919452Y-119411666D02*
X83395642Y-119411666D01*
X82824214Y-119697380D02*
X83157547Y-118697380D01*
X83490880Y-119697380D01*
X84348023Y-119697380D02*
X83776595Y-119697380D01*
X84062309Y-119697380D02*
X84062309Y-118697380D01*
X83967071Y-118840238D01*
X83871833Y-118935476D01*
X83776595Y-118983095D01*
D14*
X211696000Y-105215000D02*
X170996000Y-105215000D01*
X214296000Y-107875000D02*
X212966000Y-107875000D01*
X214296000Y-106545000D02*
X214296000Y-107875000D01*
X211696000Y-105215000D02*
X211696000Y-107875000D01*
X211696000Y-107875000D02*
X170996000Y-107875000D01*
X170996000Y-105215000D02*
X170996000Y-107875000D01*
X153276000Y-109025000D02*
X143056000Y-109025000D01*
X153276000Y-109025000D02*
X153276000Y-111685000D01*
X155876000Y-111685000D02*
X154546000Y-111685000D01*
X155876000Y-110355000D02*
X155876000Y-111685000D01*
X153276000Y-111685000D02*
X143056000Y-111685000D01*
X143056000Y-109025000D02*
X143056000Y-111685000D01*
X145021000Y-117915000D02*
X134801000Y-117915000D01*
X134801000Y-117915000D02*
X134801000Y-120575000D01*
X147621000Y-120575000D02*
X146291000Y-120575000D01*
X147621000Y-119245000D02*
X147621000Y-120575000D01*
X145021000Y-120575000D02*
X134801000Y-120575000D01*
X145021000Y-117915000D02*
X145021000Y-120575000D01*
X164766000Y-120575000D02*
X163436000Y-120575000D01*
X162166000Y-117915000D02*
X162166000Y-120575000D01*
X164766000Y-119245000D02*
X164766000Y-120575000D01*
X162166000Y-120575000D02*
X151946000Y-120575000D01*
X162166000Y-117915000D02*
X151946000Y-117915000D01*
X151946000Y-117915000D02*
X151946000Y-120575000D01*
X109626000Y-61750000D02*
X109626000Y-57250000D01*
D15*
X108845620Y-72349600D02*
X109346000Y-71849220D01*
D14*
X109506000Y-61750000D02*
X109506000Y-57250000D01*
D15*
X109346000Y-69850240D02*
X112346000Y-69850240D01*
X112346000Y-71849220D02*
X112346000Y-69850240D01*
D14*
X114926000Y-64580000D02*
X114926000Y-64410000D01*
X109846000Y-64740000D02*
X109846000Y-64410000D01*
X120728800Y-61758000D02*
X120728800Y-60676000D01*
D15*
X125046360Y-53599320D02*
X105546780Y-53599320D01*
D14*
X120134000Y-61750000D02*
X120956000Y-61750000D01*
D15*
X104045640Y-54351160D02*
X104045640Y-53850780D01*
X123545220Y-71849220D02*
X123545220Y-54849000D01*
X123044840Y-54849000D02*
X123044840Y-54351160D01*
X125046360Y-53850780D02*
X123545220Y-53850780D01*
D14*
X114166000Y-55750000D02*
X114926000Y-55750000D01*
X116706000Y-61750000D02*
X108704000Y-61750000D01*
X114166000Y-64580000D02*
X114166000Y-64410000D01*
X114926000Y-55750000D02*
X114926000Y-59802000D01*
X113276000Y-64410000D02*
X113276000Y-61750000D01*
X117466000Y-57140000D02*
X117466000Y-60516000D01*
X109086000Y-64740000D02*
X109086000Y-64410000D01*
X112386000Y-64807071D02*
X112386000Y-64410000D01*
X119246000Y-64807071D02*
X119246000Y-64410000D01*
X104708800Y-53797200D02*
X120728800Y-53797200D01*
D15*
X105546780Y-53350400D02*
X125046360Y-53350400D01*
X119946000Y-71849220D02*
X119946000Y-69850240D01*
D14*
X120728800Y-72667200D02*
X120728800Y-69250000D01*
D15*
X104045640Y-53850780D02*
X105546780Y-53850780D01*
D14*
X121096800Y-68387200D02*
X121604800Y-68895200D01*
X109146000Y-61750000D02*
X109146000Y-57250000D01*
X111626000Y-59802000D02*
X111626000Y-57150000D01*
X120728800Y-57250000D02*
X120728800Y-56650000D01*
X109386000Y-61750000D02*
X109386000Y-57250000D01*
D15*
X105546780Y-57250000D02*
X105546780Y-54849000D01*
D14*
X111626000Y-64807071D02*
X111626000Y-64410000D01*
X109266000Y-61750000D02*
X109266000Y-57250000D01*
D15*
X109346000Y-71849220D02*
X109346000Y-69850240D01*
X123545220Y-54099700D02*
X104045640Y-54099700D01*
D14*
X108998000Y-67120000D02*
X108196000Y-67120000D01*
X120956000Y-64410000D02*
X120956000Y-61750000D01*
D15*
X120446380Y-72350380D02*
X119946000Y-71850000D01*
D14*
X120006000Y-60516000D02*
X120006000Y-61278000D01*
X118356000Y-64410000D02*
X118356000Y-63818000D01*
X114166000Y-59802000D02*
X114166000Y-55750000D01*
D15*
X123545220Y-53850780D02*
X123545220Y-54351160D01*
D14*
X120006000Y-57468000D02*
X120006000Y-57120000D01*
X109846000Y-57214000D02*
X109846000Y-61750000D01*
D15*
X119946000Y-69850240D02*
X116946000Y-69850240D01*
D14*
X104708800Y-57237200D02*
X104708800Y-53797200D01*
X120728800Y-66450000D02*
X120728800Y-67450000D01*
D15*
X106047160Y-54351160D02*
X106047160Y-54849000D01*
X105546780Y-71849220D02*
X106047160Y-72349600D01*
X123545220Y-71849220D02*
X123044840Y-72349600D01*
D14*
X120728800Y-55050000D02*
X120728800Y-53797200D01*
X120006000Y-64807071D02*
X120006000Y-64410000D01*
D15*
X112843840Y-72349600D02*
X112346000Y-71850000D01*
D14*
X115816000Y-64410000D02*
X115816000Y-61750000D01*
D15*
X105546780Y-54849000D02*
X106047160Y-54849000D01*
D14*
X120728800Y-65050000D02*
X120728800Y-64410000D01*
X117466000Y-64807071D02*
X117466000Y-64410000D01*
X121604800Y-68895200D02*
X121604800Y-67879200D01*
X108136000Y-63310000D02*
X108136000Y-64410000D01*
X110736000Y-64410000D02*
X110736000Y-61750000D01*
X119246000Y-60516000D02*
X119246000Y-60008000D01*
X109746000Y-61750000D02*
X109746000Y-57250000D01*
X104708800Y-72667200D02*
X104708800Y-60737200D01*
X104708800Y-72667200D02*
X120728800Y-72667200D01*
D15*
X105546780Y-53850780D02*
X123545220Y-53850780D01*
D14*
X119246000Y-58022000D02*
X119246000Y-57214000D01*
X121604800Y-67879200D02*
X121096800Y-68387200D01*
X109086000Y-61750000D02*
X109086000Y-57214000D01*
X116706000Y-64807071D02*
X116706000Y-64410000D01*
D15*
X105546780Y-53850780D02*
X105546780Y-53350400D01*
X123545220Y-54849000D02*
X123044840Y-54849000D01*
X123545220Y-54351160D02*
X104045640Y-54351160D01*
X123044840Y-72349600D02*
X120446380Y-72350380D01*
X116448160Y-72350380D02*
X116946000Y-71850000D01*
X116448160Y-72350380D02*
X112843840Y-72349600D01*
D14*
X108136000Y-64410000D02*
X120956000Y-64410000D01*
D15*
X116946000Y-71849220D02*
X116946000Y-69850240D01*
D14*
X116706000Y-61750000D02*
X116706000Y-57214000D01*
D15*
X106047160Y-72349600D02*
X108845620Y-72349600D01*
D14*
X112386000Y-57170000D02*
X112386000Y-59802000D01*
D15*
X105546780Y-71849220D02*
X105546780Y-63250000D01*
X125046360Y-53350400D02*
X125046360Y-53850780D01*
D14*
X108196000Y-67120000D02*
X108196000Y-66518000D01*
X109085998Y-57173379D02*
G75*
G03*
X109846000Y-57213999I453202J1349279D01*
G01*
X119255851Y-57169209D02*
G75*
G03*
X120006000Y-57119999I290148J1319206D01*
G01*
X116717872Y-57166371D02*
G75*
G03*
X117466000Y-57140000I328127J1316380D01*
G01*
X111644868Y-57152724D02*
G75*
G03*
X112386000Y-57169999I401132J1302724D01*
G01*
X114926000Y-59802001D02*
G75*
G03*
X114166000Y-59802001I-380000J-1015996D01*
G01*
X112386000Y-59802001D02*
G75*
G03*
X111626000Y-59802001I-380000J-1015996D01*
G01*
X182426000Y-76827000D02*
X182426000Y-75497000D01*
X185026000Y-75497000D02*
X187626000Y-75497000D01*
X185026000Y-78157000D02*
X187626000Y-78157000D01*
X185026000Y-78157000D02*
X185026000Y-75497000D01*
X187626000Y-78157000D02*
X187626000Y-75497000D01*
X182426000Y-75497000D02*
X183756000Y-75497000D01*
X181276000Y-68505000D02*
X179946000Y-68505000D01*
X178676000Y-68505000D02*
X137976000Y-68505000D01*
X137976000Y-65845000D02*
X137976000Y-68505000D01*
X178676000Y-65845000D02*
X137976000Y-65845000D01*
X178676000Y-65845000D02*
X178676000Y-68505000D01*
X181276000Y-67175000D02*
X181276000Y-68505000D01*
X94986000Y-56340000D02*
X98106000Y-56340000D01*
X95276000Y-56340000D02*
X95276000Y-56470000D01*
X98106000Y-56340000D02*
X98106000Y-52480000D01*
X97816000Y-56470000D02*
X97816000Y-56340000D01*
X98506000Y-55220000D02*
X98106000Y-55220000D01*
X97816000Y-56470000D02*
X97816000Y-56470000D01*
X98106000Y-56340000D02*
X98506000Y-56340000D01*
X95276000Y-56340000D02*
X95276000Y-56340000D01*
X98506000Y-56340000D02*
X98506000Y-55220000D01*
X95276000Y-56470000D02*
X95276000Y-56470000D01*
X98106000Y-55220000D02*
X98106000Y-56340000D01*
X97816000Y-56340000D02*
X97816000Y-56470000D01*
X97816000Y-56340000D02*
X97816000Y-56340000D01*
X95276000Y-56470000D02*
X95276000Y-56340000D01*
X94986000Y-56340000D02*
X94986000Y-52480000D01*
X98106000Y-52480000D02*
G75*
G03*
X94986000Y-52480000I-1560000J0D01*
G01*
X214296000Y-119245000D02*
X214296000Y-120575000D01*
X214296000Y-120575000D02*
X212966000Y-120575000D01*
X170996000Y-117915000D02*
X170996000Y-120575000D01*
X211696000Y-120575000D02*
X170996000Y-120575000D01*
X211696000Y-117915000D02*
X211696000Y-120575000D01*
X211696000Y-117915000D02*
X170996000Y-117915000D01*
X125336000Y-105215000D02*
X84636000Y-105215000D01*
X127936000Y-107875000D02*
X126606000Y-107875000D01*
X125336000Y-107875000D02*
X84636000Y-107875000D01*
X84636000Y-105215000D02*
X84636000Y-107875000D01*
X127936000Y-106545000D02*
X127936000Y-107875000D01*
X125336000Y-105215000D02*
X125336000Y-107875000D01*
X127936000Y-120575000D02*
X126606000Y-120575000D01*
X125336000Y-120575000D02*
X84636000Y-120575000D01*
X125336000Y-117915000D02*
X125336000Y-120575000D01*
X84636000Y-117915000D02*
X84636000Y-120575000D01*
X127936000Y-119245000D02*
X127936000Y-120575000D01*
X125336000Y-117915000D02*
X84636000Y-117915000D01*
M02*
