G04 #@! TF.GenerationSoftware,KiCad,Pcbnew,(6.0.7)*
G04 #@! TF.CreationDate,2022-11-13T23:20:38+00:00*
G04 #@! TF.ProjectId,A3010PoduleCarrier,41333031-3050-46f6-9475-6c6543617272,01a*
G04 #@! TF.SameCoordinates,Original*
G04 #@! TF.FileFunction,Legend,Bot*
G04 #@! TF.FilePolarity,Positive*
%FSLAX46Y46*%
G04 Gerber Fmt 4.6, Leading zero omitted, Abs format (unit mm)*
G04 Created by KiCad (PCBNEW (6.0.7)) date 2022-11-13 23:20:38*
%MOMM*%
%LPD*%
G01*
G04 APERTURE LIST*
%ADD10C,0.120000*%
%ADD11C,0.150000*%
G04 APERTURE END LIST*
D10*
X74536000Y-104005000D02*
X102476000Y-104005000D01*
X102476000Y-104005000D02*
X102476000Y-93845000D01*
X102476000Y-93845000D02*
X74536000Y-93845000D01*
X74536000Y-93845000D02*
X74536000Y-104005000D01*
X94856000Y-104005000D02*
X94856000Y-93845000D01*
X74536000Y-96385000D02*
X102476000Y-96385000D01*
D11*
X105825047Y-53927380D02*
X105825047Y-54641666D01*
X105872666Y-54784523D01*
X105967904Y-54879761D01*
X106110761Y-54927380D01*
X106206000Y-54927380D01*
X104872666Y-54927380D02*
X105348857Y-54927380D01*
X105348857Y-53927380D01*
X103967904Y-54832142D02*
X104015523Y-54879761D01*
X104158380Y-54927380D01*
X104253619Y-54927380D01*
X104396476Y-54879761D01*
X104491714Y-54784523D01*
X104539333Y-54689285D01*
X104586952Y-54498809D01*
X104586952Y-54355952D01*
X104539333Y-54165476D01*
X104491714Y-54070238D01*
X104396476Y-53975000D01*
X104253619Y-53927380D01*
X104158380Y-53927380D01*
X104015523Y-53975000D01*
X103967904Y-54022619D01*
X103253619Y-53927380D02*
X103253619Y-54641666D01*
X103301238Y-54784523D01*
X103396476Y-54879761D01*
X103539333Y-54927380D01*
X103634571Y-54927380D01*
X102301238Y-54927380D02*
X102777428Y-54927380D01*
X102777428Y-53927380D01*
X101396476Y-54832142D02*
X101444095Y-54879761D01*
X101586952Y-54927380D01*
X101682190Y-54927380D01*
X101825047Y-54879761D01*
X101920285Y-54784523D01*
X101967904Y-54689285D01*
X102015523Y-54498809D01*
X102015523Y-54355952D01*
X101967904Y-54165476D01*
X101920285Y-54070238D01*
X101825047Y-53975000D01*
X101682190Y-53927380D01*
X101586952Y-53927380D01*
X101444095Y-53975000D01*
X101396476Y-54022619D01*
X100682190Y-53927380D02*
X100682190Y-54641666D01*
X100729809Y-54784523D01*
X100825047Y-54879761D01*
X100967904Y-54927380D01*
X101063142Y-54927380D01*
X99729809Y-54927380D02*
X100206000Y-54927380D01*
X100206000Y-53927380D01*
X98825047Y-54832142D02*
X98872666Y-54879761D01*
X99015523Y-54927380D01*
X99110761Y-54927380D01*
X99253619Y-54879761D01*
X99348857Y-54784523D01*
X99396476Y-54689285D01*
X99444095Y-54498809D01*
X99444095Y-54355952D01*
X99396476Y-54165476D01*
X99348857Y-54070238D01*
X99253619Y-53975000D01*
X99110761Y-53927380D01*
X99015523Y-53927380D01*
X98872666Y-53975000D01*
X98825047Y-54022619D01*
X98110761Y-53927380D02*
X98110761Y-54641666D01*
X98158380Y-54784523D01*
X98253619Y-54879761D01*
X98396476Y-54927380D01*
X98491714Y-54927380D01*
X97158380Y-54927380D02*
X97634571Y-54927380D01*
X97634571Y-53927380D01*
X96253619Y-54832142D02*
X96301238Y-54879761D01*
X96444095Y-54927380D01*
X96539333Y-54927380D01*
X96682190Y-54879761D01*
X96777428Y-54784523D01*
X96825047Y-54689285D01*
X96872666Y-54498809D01*
X96872666Y-54355952D01*
X96825047Y-54165476D01*
X96777428Y-54070238D01*
X96682190Y-53975000D01*
X96539333Y-53927380D01*
X96444095Y-53927380D01*
X96301238Y-53975000D01*
X96253619Y-54022619D01*
X85362666Y-103187380D02*
X85934095Y-103187380D01*
X85648380Y-103187380D02*
X85648380Y-102187380D01*
X85743619Y-102330238D01*
X85838857Y-102425476D01*
X85934095Y-102473095D01*
X84457904Y-102187380D02*
X84934095Y-102187380D01*
X84981714Y-102663571D01*
X84934095Y-102615952D01*
X84838857Y-102568333D01*
X84600761Y-102568333D01*
X84505523Y-102615952D01*
X84457904Y-102663571D01*
X84410285Y-102758809D01*
X84410285Y-102996904D01*
X84457904Y-103092142D01*
X84505523Y-103139761D01*
X84600761Y-103187380D01*
X84838857Y-103187380D01*
X84934095Y-103139761D01*
X84981714Y-103092142D01*
X83553142Y-102187380D02*
X83743619Y-102187380D01*
X83838857Y-102235000D01*
X83886476Y-102282619D01*
X83981714Y-102425476D01*
X84029333Y-102615952D01*
X84029333Y-102996904D01*
X83981714Y-103092142D01*
X83934095Y-103139761D01*
X83838857Y-103187380D01*
X83648380Y-103187380D01*
X83553142Y-103139761D01*
X83505523Y-103092142D01*
X83457904Y-102996904D01*
X83457904Y-102758809D01*
X83505523Y-102663571D01*
X83553142Y-102615952D01*
X83648380Y-102568333D01*
X83838857Y-102568333D01*
X83934095Y-102615952D01*
X83981714Y-102663571D01*
X84029333Y-102758809D01*
X93434095Y-95281666D02*
X92957904Y-95281666D01*
X93529333Y-95567380D02*
X93196000Y-94567380D01*
X92862666Y-95567380D01*
X92100761Y-95567380D02*
X92100761Y-94567380D01*
X92100761Y-95519761D02*
X92196000Y-95567380D01*
X92386476Y-95567380D01*
X92481714Y-95519761D01*
X92529333Y-95472142D01*
X92576952Y-95376904D01*
X92576952Y-95091190D01*
X92529333Y-94995952D01*
X92481714Y-94948333D01*
X92386476Y-94900714D01*
X92196000Y-94900714D01*
X92100761Y-94948333D01*
X91243619Y-95519761D02*
X91338857Y-95567380D01*
X91529333Y-95567380D01*
X91624571Y-95519761D01*
X91672190Y-95424523D01*
X91672190Y-95043571D01*
X91624571Y-94948333D01*
X91529333Y-94900714D01*
X91338857Y-94900714D01*
X91243619Y-94948333D01*
X91196000Y-95043571D01*
X91196000Y-95138809D01*
X91672190Y-95234047D01*
X90624571Y-95567380D02*
X90719809Y-95519761D01*
X90767428Y-95424523D01*
X90767428Y-94567380D01*
X89815047Y-95567380D02*
X89815047Y-95043571D01*
X89862666Y-94948333D01*
X89957904Y-94900714D01*
X90148380Y-94900714D01*
X90243619Y-94948333D01*
X89815047Y-95519761D02*
X89910285Y-95567380D01*
X90148380Y-95567380D01*
X90243619Y-95519761D01*
X90291238Y-95424523D01*
X90291238Y-95329285D01*
X90243619Y-95234047D01*
X90148380Y-95186428D01*
X89910285Y-95186428D01*
X89815047Y-95138809D01*
X89338857Y-95567380D02*
X89338857Y-94900714D01*
X89338857Y-94567380D02*
X89386476Y-94615000D01*
X89338857Y-94662619D01*
X89291238Y-94615000D01*
X89338857Y-94567380D01*
X89338857Y-94662619D01*
X88434095Y-95567380D02*
X88434095Y-94567380D01*
X88434095Y-95519761D02*
X88529333Y-95567380D01*
X88719809Y-95567380D01*
X88815047Y-95519761D01*
X88862666Y-95472142D01*
X88910285Y-95376904D01*
X88910285Y-95091190D01*
X88862666Y-94995952D01*
X88815047Y-94948333D01*
X88719809Y-94900714D01*
X88529333Y-94900714D01*
X88434095Y-94948333D01*
X87576952Y-95519761D02*
X87672190Y-95567380D01*
X87862666Y-95567380D01*
X87957904Y-95519761D01*
X88005523Y-95424523D01*
X88005523Y-95043571D01*
X87957904Y-94948333D01*
X87862666Y-94900714D01*
X87672190Y-94900714D01*
X87576952Y-94948333D01*
X87529333Y-95043571D01*
X87529333Y-95138809D01*
X88005523Y-95234047D01*
X85624571Y-94519761D02*
X86481714Y-95805476D01*
X84576952Y-95281666D02*
X84100761Y-95281666D01*
X84672190Y-95567380D02*
X84338857Y-94567380D01*
X84005523Y-95567380D01*
X83100761Y-95567380D02*
X83434095Y-95091190D01*
X83672190Y-95567380D02*
X83672190Y-94567380D01*
X83291238Y-94567380D01*
X83196000Y-94615000D01*
X83148380Y-94662619D01*
X83100761Y-94757857D01*
X83100761Y-94900714D01*
X83148380Y-94995952D01*
X83196000Y-95043571D01*
X83291238Y-95091190D01*
X83672190Y-95091190D01*
X82672190Y-95567380D02*
X82672190Y-94567380D01*
X82338857Y-95281666D01*
X82005523Y-94567380D01*
X82005523Y-95567380D01*
X81576952Y-94662619D02*
X81529333Y-94615000D01*
X81434095Y-94567380D01*
X81196000Y-94567380D01*
X81100761Y-94615000D01*
X81053142Y-94662619D01*
X81005523Y-94757857D01*
X81005523Y-94853095D01*
X81053142Y-94995952D01*
X81624571Y-95567380D01*
X81005523Y-95567380D01*
X80100761Y-94567380D02*
X80576952Y-94567380D01*
X80624571Y-95043571D01*
X80576952Y-94995952D01*
X80481714Y-94948333D01*
X80243619Y-94948333D01*
X80148380Y-94995952D01*
X80100761Y-95043571D01*
X80053142Y-95138809D01*
X80053142Y-95376904D01*
X80100761Y-95472142D01*
X80148380Y-95519761D01*
X80243619Y-95567380D01*
X80481714Y-95567380D01*
X80576952Y-95519761D01*
X80624571Y-95472142D01*
X79434095Y-94567380D02*
X79338857Y-94567380D01*
X79243619Y-94615000D01*
X79196000Y-94662619D01*
X79148380Y-94757857D01*
X79100761Y-94948333D01*
X79100761Y-95186428D01*
X79148380Y-95376904D01*
X79196000Y-95472142D01*
X79243619Y-95519761D01*
X79338857Y-95567380D01*
X79434095Y-95567380D01*
X79529333Y-95519761D01*
X79576952Y-95472142D01*
X79624571Y-95376904D01*
X79672190Y-95186428D01*
X79672190Y-94948333D01*
X79624571Y-94757857D01*
X79576952Y-94662619D01*
X79529333Y-94615000D01*
X79434095Y-94567380D01*
X77910285Y-95567380D02*
X77910285Y-94567380D01*
X77529333Y-94567380D01*
X77434095Y-94615000D01*
X77386476Y-94662619D01*
X77338857Y-94757857D01*
X77338857Y-94900714D01*
X77386476Y-94995952D01*
X77434095Y-95043571D01*
X77529333Y-95091190D01*
X77910285Y-95091190D01*
X76910285Y-95567380D02*
X76910285Y-94900714D01*
X76910285Y-94567380D02*
X76957904Y-94615000D01*
X76910285Y-94662619D01*
X76862666Y-94615000D01*
X76910285Y-94567380D01*
X76910285Y-94662619D01*
X76434095Y-94900714D02*
X76434095Y-95567380D01*
X76434095Y-94995952D02*
X76386476Y-94948333D01*
X76291238Y-94900714D01*
X76148380Y-94900714D01*
X76053142Y-94948333D01*
X76005523Y-95043571D01*
X76005523Y-95567380D01*
X80814571Y-106368452D02*
X80814571Y-106701785D01*
X81338380Y-106844642D02*
X81338380Y-106368452D01*
X80338380Y-106368452D01*
X80338380Y-106844642D01*
X80671714Y-107130357D02*
X80671714Y-107511309D01*
X81338380Y-107273214D02*
X80481238Y-107273214D01*
X80386000Y-107320833D01*
X80338380Y-107416071D01*
X80338380Y-107511309D01*
X81338380Y-107844642D02*
X80671714Y-107844642D01*
X80338380Y-107844642D02*
X80386000Y-107797023D01*
X80433619Y-107844642D01*
X80386000Y-107892261D01*
X80338380Y-107844642D01*
X80433619Y-107844642D01*
X80671714Y-108749404D02*
X81671714Y-108749404D01*
X81290761Y-108749404D02*
X81338380Y-108654166D01*
X81338380Y-108463690D01*
X81290761Y-108368452D01*
X81243142Y-108320833D01*
X81147904Y-108273214D01*
X80862190Y-108273214D01*
X80766952Y-108320833D01*
X80719333Y-108368452D01*
X80671714Y-108463690D01*
X80671714Y-108654166D01*
X80719333Y-108749404D01*
X76210761Y-107273214D02*
X76258380Y-107416071D01*
X76258380Y-107654166D01*
X76210761Y-107749404D01*
X76163142Y-107797023D01*
X76067904Y-107844642D01*
X75972666Y-107844642D01*
X75877428Y-107797023D01*
X75829809Y-107749404D01*
X75782190Y-107654166D01*
X75734571Y-107463690D01*
X75686952Y-107368452D01*
X75639333Y-107320833D01*
X75544095Y-107273214D01*
X75448857Y-107273214D01*
X75353619Y-107320833D01*
X75306000Y-107368452D01*
X75258380Y-107463690D01*
X75258380Y-107701785D01*
X75306000Y-107844642D01*
X75353619Y-108225595D02*
X75306000Y-108273214D01*
X75258380Y-108368452D01*
X75258380Y-108606547D01*
X75306000Y-108701785D01*
X75353619Y-108749404D01*
X75448857Y-108797023D01*
X75544095Y-108797023D01*
X75686952Y-108749404D01*
X76258380Y-108177976D01*
X76258380Y-108797023D01*
X100870404Y-97583571D02*
X100537071Y-97583571D01*
X100394214Y-98107380D02*
X100870404Y-98107380D01*
X100870404Y-97107380D01*
X100394214Y-97107380D01*
X100108500Y-97440714D02*
X99727547Y-97440714D01*
X99965642Y-98107380D02*
X99965642Y-97250238D01*
X99918023Y-97155000D01*
X99822785Y-97107380D01*
X99727547Y-97107380D01*
X99394214Y-98107380D02*
X99394214Y-97440714D01*
X99394214Y-97107380D02*
X99441833Y-97155000D01*
X99394214Y-97202619D01*
X99346595Y-97155000D01*
X99394214Y-97107380D01*
X99394214Y-97202619D01*
X98489452Y-97440714D02*
X98489452Y-98440714D01*
X98489452Y-98059761D02*
X98584690Y-98107380D01*
X98775166Y-98107380D01*
X98870404Y-98059761D01*
X98918023Y-98012142D01*
X98965642Y-97916904D01*
X98965642Y-97631190D01*
X98918023Y-97535952D01*
X98870404Y-97488333D01*
X98775166Y-97440714D01*
X98584690Y-97440714D01*
X98489452Y-97488333D01*
X77798380Y-106225595D02*
X78798380Y-106463690D01*
X78084095Y-106654166D01*
X78798380Y-106844642D01*
X77798380Y-107082738D01*
X78798380Y-107463690D02*
X77798380Y-107463690D01*
X78179333Y-107463690D02*
X78131714Y-107558928D01*
X78131714Y-107749404D01*
X78179333Y-107844642D01*
X78226952Y-107892261D01*
X78322190Y-107939880D01*
X78607904Y-107939880D01*
X78703142Y-107892261D01*
X78750761Y-107844642D01*
X78798380Y-107749404D01*
X78798380Y-107558928D01*
X78750761Y-107463690D01*
X78750761Y-108749404D02*
X78798380Y-108654166D01*
X78798380Y-108463690D01*
X78750761Y-108368452D01*
X78655523Y-108320833D01*
X78274571Y-108320833D01*
X78179333Y-108368452D01*
X78131714Y-108463690D01*
X78131714Y-108654166D01*
X78179333Y-108749404D01*
X78274571Y-108797023D01*
X78369809Y-108797023D01*
X78465047Y-108320833D01*
X85362666Y-98107380D02*
X85934095Y-98107380D01*
X85648380Y-98107380D02*
X85648380Y-97107380D01*
X85743619Y-97250238D01*
X85838857Y-97345476D01*
X85934095Y-97393095D01*
X85029333Y-97107380D02*
X84410285Y-97107380D01*
X84743619Y-97488333D01*
X84600761Y-97488333D01*
X84505523Y-97535952D01*
X84457904Y-97583571D01*
X84410285Y-97678809D01*
X84410285Y-97916904D01*
X84457904Y-98012142D01*
X84505523Y-98059761D01*
X84600761Y-98107380D01*
X84886476Y-98107380D01*
X84981714Y-98059761D01*
X85029333Y-98012142D01*
X83553142Y-97440714D02*
X83553142Y-98107380D01*
X83791238Y-97059761D02*
X84029333Y-97774047D01*
X83410285Y-97774047D01*
X100918023Y-100599761D02*
X100775166Y-100647380D01*
X100537071Y-100647380D01*
X100441833Y-100599761D01*
X100394214Y-100552142D01*
X100346595Y-100456904D01*
X100346595Y-100361666D01*
X100394214Y-100266428D01*
X100441833Y-100218809D01*
X100537071Y-100171190D01*
X100727547Y-100123571D01*
X100822785Y-100075952D01*
X100870404Y-100028333D01*
X100918023Y-99933095D01*
X100918023Y-99837857D01*
X100870404Y-99742619D01*
X100822785Y-99695000D01*
X100727547Y-99647380D01*
X100489452Y-99647380D01*
X100346595Y-99695000D01*
X99965642Y-99742619D02*
X99918023Y-99695000D01*
X99822785Y-99647380D01*
X99584690Y-99647380D01*
X99489452Y-99695000D01*
X99441833Y-99742619D01*
X99394214Y-99837857D01*
X99394214Y-99933095D01*
X99441833Y-100075952D01*
X100013261Y-100647380D01*
X99394214Y-100647380D01*
X85362666Y-100647380D02*
X85934095Y-100647380D01*
X85648380Y-100647380D02*
X85648380Y-99647380D01*
X85743619Y-99790238D01*
X85838857Y-99885476D01*
X85934095Y-99933095D01*
X84505523Y-99980714D02*
X84505523Y-100647380D01*
X84743619Y-99599761D02*
X84981714Y-100314047D01*
X84362666Y-100314047D01*
X83553142Y-99980714D02*
X83553142Y-100647380D01*
X83791238Y-99599761D02*
X84029333Y-100314047D01*
X83410285Y-100314047D01*
X100918023Y-95519761D02*
X100775166Y-95567380D01*
X100537071Y-95567380D01*
X100441833Y-95519761D01*
X100394214Y-95472142D01*
X100346595Y-95376904D01*
X100346595Y-95281666D01*
X100394214Y-95186428D01*
X100441833Y-95138809D01*
X100537071Y-95091190D01*
X100727547Y-95043571D01*
X100822785Y-94995952D01*
X100870404Y-94948333D01*
X100918023Y-94853095D01*
X100918023Y-94757857D01*
X100870404Y-94662619D01*
X100822785Y-94615000D01*
X100727547Y-94567380D01*
X100489452Y-94567380D01*
X100346595Y-94615000D01*
X99918023Y-95567380D02*
X99918023Y-94900714D01*
X99918023Y-94567380D02*
X99965642Y-94615000D01*
X99918023Y-94662619D01*
X99870404Y-94615000D01*
X99918023Y-94567380D01*
X99918023Y-94662619D01*
X99013261Y-94900714D02*
X99013261Y-95710238D01*
X99060880Y-95805476D01*
X99108500Y-95853095D01*
X99203738Y-95900714D01*
X99346595Y-95900714D01*
X99441833Y-95853095D01*
X99013261Y-95519761D02*
X99108500Y-95567380D01*
X99298976Y-95567380D01*
X99394214Y-95519761D01*
X99441833Y-95472142D01*
X99489452Y-95376904D01*
X99489452Y-95091190D01*
X99441833Y-94995952D01*
X99394214Y-94948333D01*
X99298976Y-94900714D01*
X99108500Y-94900714D01*
X99013261Y-94948333D01*
X98537071Y-94900714D02*
X98537071Y-95567380D01*
X98537071Y-94995952D02*
X98489452Y-94948333D01*
X98394214Y-94900714D01*
X98251357Y-94900714D01*
X98156119Y-94948333D01*
X98108500Y-95043571D01*
X98108500Y-95567380D01*
X97203738Y-95567380D02*
X97203738Y-95043571D01*
X97251357Y-94948333D01*
X97346595Y-94900714D01*
X97537071Y-94900714D01*
X97632309Y-94948333D01*
X97203738Y-95519761D02*
X97298976Y-95567380D01*
X97537071Y-95567380D01*
X97632309Y-95519761D01*
X97679928Y-95424523D01*
X97679928Y-95329285D01*
X97632309Y-95234047D01*
X97537071Y-95186428D01*
X97298976Y-95186428D01*
X97203738Y-95138809D01*
X96584690Y-95567380D02*
X96679928Y-95519761D01*
X96727547Y-95424523D01*
X96727547Y-94567380D01*
X100965642Y-102187380D02*
X100727547Y-103187380D01*
X100537071Y-102473095D01*
X100346595Y-103187380D01*
X100108500Y-102187380D01*
X99727547Y-103187380D02*
X99727547Y-102187380D01*
X99727547Y-102568333D02*
X99632309Y-102520714D01*
X99441833Y-102520714D01*
X99346595Y-102568333D01*
X99298976Y-102615952D01*
X99251357Y-102711190D01*
X99251357Y-102996904D01*
X99298976Y-103092142D01*
X99346595Y-103139761D01*
X99441833Y-103187380D01*
X99632309Y-103187380D01*
X99727547Y-103139761D01*
X98441833Y-103139761D02*
X98537071Y-103187380D01*
X98727547Y-103187380D01*
X98822785Y-103139761D01*
X98870404Y-103044523D01*
X98870404Y-102663571D01*
X98822785Y-102568333D01*
X98727547Y-102520714D01*
X98537071Y-102520714D01*
X98441833Y-102568333D01*
X98394214Y-102663571D01*
X98394214Y-102758809D01*
X98870404Y-102854047D01*
X84014690Y-116157380D02*
X84014690Y-116871666D01*
X84062309Y-117014523D01*
X84157547Y-117109761D01*
X84300404Y-117157380D01*
X84395642Y-117157380D01*
X83062309Y-116157380D02*
X83538500Y-116157380D01*
X83586119Y-116633571D01*
X83538500Y-116585952D01*
X83443261Y-116538333D01*
X83205166Y-116538333D01*
X83109928Y-116585952D01*
X83062309Y-116633571D01*
X83014690Y-116728809D01*
X83014690Y-116966904D01*
X83062309Y-117062142D01*
X83109928Y-117109761D01*
X83205166Y-117157380D01*
X83443261Y-117157380D01*
X83538500Y-117109761D01*
X83586119Y-117062142D01*
X86218261Y-112577380D02*
X86218261Y-113291666D01*
X86265880Y-113434523D01*
X86361119Y-113529761D01*
X86503976Y-113577380D01*
X86599214Y-113577380D01*
X85218261Y-113577380D02*
X85789690Y-113577380D01*
X85503976Y-113577380D02*
X85503976Y-112577380D01*
X85599214Y-112720238D01*
X85694452Y-112815476D01*
X85789690Y-112863095D01*
X85027785Y-113672619D02*
X84265880Y-113672619D01*
X83456357Y-113482142D02*
X83503976Y-113529761D01*
X83646833Y-113577380D01*
X83742071Y-113577380D01*
X83884928Y-113529761D01*
X83980166Y-113434523D01*
X84027785Y-113339285D01*
X84075404Y-113148809D01*
X84075404Y-113005952D01*
X84027785Y-112815476D01*
X83980166Y-112720238D01*
X83884928Y-112625000D01*
X83742071Y-112577380D01*
X83646833Y-112577380D01*
X83503976Y-112625000D01*
X83456357Y-112672619D01*
X82503976Y-113577380D02*
X83075404Y-113577380D01*
X82789690Y-113577380D02*
X82789690Y-112577380D01*
X82884928Y-112720238D01*
X82980166Y-112815476D01*
X83075404Y-112863095D01*
X215583976Y-116157380D02*
X215583976Y-116871666D01*
X215631595Y-117014523D01*
X215726833Y-117109761D01*
X215869690Y-117157380D01*
X215964928Y-117157380D01*
X215060166Y-117157380D02*
X214869690Y-117157380D01*
X214774452Y-117109761D01*
X214726833Y-117062142D01*
X214631595Y-116919285D01*
X214583976Y-116728809D01*
X214583976Y-116347857D01*
X214631595Y-116252619D01*
X214679214Y-116205000D01*
X214774452Y-116157380D01*
X214964928Y-116157380D01*
X215060166Y-116205000D01*
X215107785Y-116252619D01*
X215155404Y-116347857D01*
X215155404Y-116585952D01*
X215107785Y-116681190D01*
X215060166Y-116728809D01*
X214964928Y-116776428D01*
X214774452Y-116776428D01*
X214679214Y-116728809D01*
X214631595Y-116681190D01*
X214583976Y-116585952D01*
X134179690Y-116157380D02*
X134179690Y-116871666D01*
X134227309Y-117014523D01*
X134322547Y-117109761D01*
X134465404Y-117157380D01*
X134560642Y-117157380D01*
X133798738Y-116157380D02*
X133132071Y-116157380D01*
X133560642Y-117157380D01*
X166053976Y-116157380D02*
X166053976Y-116871666D01*
X166101595Y-117014523D01*
X166196833Y-117109761D01*
X166339690Y-117157380D01*
X166434928Y-117157380D01*
X165434928Y-116585952D02*
X165530166Y-116538333D01*
X165577785Y-116490714D01*
X165625404Y-116395476D01*
X165625404Y-116347857D01*
X165577785Y-116252619D01*
X165530166Y-116205000D01*
X165434928Y-116157380D01*
X165244452Y-116157380D01*
X165149214Y-116205000D01*
X165101595Y-116252619D01*
X165053976Y-116347857D01*
X165053976Y-116395476D01*
X165101595Y-116490714D01*
X165149214Y-116538333D01*
X165244452Y-116585952D01*
X165434928Y-116585952D01*
X165530166Y-116633571D01*
X165577785Y-116681190D01*
X165625404Y-116776428D01*
X165625404Y-116966904D01*
X165577785Y-117062142D01*
X165530166Y-117109761D01*
X165434928Y-117157380D01*
X165244452Y-117157380D01*
X165149214Y-117109761D01*
X165101595Y-117062142D01*
X165053976Y-116966904D01*
X165053976Y-116776428D01*
X165101595Y-116681190D01*
X165149214Y-116633571D01*
X165244452Y-116585952D01*
D10*
X125336000Y-118035000D02*
X125336000Y-115375000D01*
X84636000Y-118035000D02*
X84636000Y-115375000D01*
X126606000Y-118035000D02*
X127936000Y-118035000D01*
X127936000Y-118035000D02*
X127936000Y-116705000D01*
X125336000Y-115375000D02*
X84636000Y-115375000D01*
X125336000Y-118035000D02*
X84636000Y-118035000D01*
G36*
X213403221Y-85875659D02*
G01*
X214850986Y-85875659D01*
X214850986Y-86312335D01*
X210993679Y-86312335D01*
X210993679Y-85875659D01*
X211981105Y-85875659D01*
X212326670Y-85874706D01*
X212615644Y-85869504D01*
X212798797Y-85857148D01*
X212897586Y-85834752D01*
X212933468Y-85799430D01*
X212927898Y-85748295D01*
X212920729Y-85726221D01*
X212871943Y-85578503D01*
X212786994Y-85322715D01*
X212673271Y-84981058D01*
X212538161Y-84575737D01*
X212389054Y-84128954D01*
X211890843Y-82636977D01*
X208575493Y-82636977D01*
X208074271Y-84232839D01*
X207992429Y-84493734D01*
X207857765Y-84924498D01*
X207742378Y-85295489D01*
X207652385Y-85586942D01*
X207593903Y-85779094D01*
X207573049Y-85852180D01*
X207633405Y-85860911D01*
X207812042Y-85868567D01*
X208080488Y-85873752D01*
X208410012Y-85875659D01*
X209246975Y-85875659D01*
X209246975Y-86312335D01*
X204225198Y-86312335D01*
X204225198Y-85875659D01*
X204934797Y-85875196D01*
X205644396Y-85874732D01*
X206837638Y-82050615D01*
X208761274Y-82050615D01*
X208765992Y-82089964D01*
X208809384Y-82119011D01*
X208909264Y-82139304D01*
X209083444Y-82152392D01*
X209349740Y-82159824D01*
X209725963Y-82163147D01*
X210229928Y-82163911D01*
X210422535Y-82163748D01*
X210891277Y-82161088D01*
X211236457Y-82154310D01*
X211474428Y-82142307D01*
X211621543Y-82123975D01*
X211694154Y-82098206D01*
X211708615Y-82063896D01*
X211692987Y-82003379D01*
X211631388Y-81792142D01*
X211537158Y-81487340D01*
X211416731Y-81108318D01*
X211276543Y-80674419D01*
X211123029Y-80204987D01*
X210962626Y-79719366D01*
X210801768Y-79236899D01*
X210646891Y-78776929D01*
X210504430Y-78358801D01*
X210380820Y-78001858D01*
X210282498Y-77725443D01*
X210215898Y-77548901D01*
X210187456Y-77491575D01*
X210179981Y-77509016D01*
X210135039Y-77639806D01*
X210056224Y-77881229D01*
X209949716Y-78213540D01*
X209821695Y-78616995D01*
X209678343Y-79071851D01*
X209525839Y-79558363D01*
X209370364Y-80056788D01*
X209218099Y-80547380D01*
X209075223Y-81010396D01*
X208947919Y-81426092D01*
X208842365Y-81774724D01*
X208764744Y-82036547D01*
X208761274Y-82050615D01*
X206837638Y-82050615D01*
X207466680Y-80034651D01*
X207649496Y-79449065D01*
X207955479Y-78470875D01*
X208223011Y-77618865D01*
X208454912Y-76884640D01*
X208654000Y-76259803D01*
X208823093Y-75735958D01*
X208965009Y-75304709D01*
X209082569Y-74957660D01*
X209178589Y-74686414D01*
X209255888Y-74482575D01*
X209317285Y-74337747D01*
X209365599Y-74243533D01*
X209403648Y-74191539D01*
X209434250Y-74173366D01*
X209453002Y-74167998D01*
X209470925Y-74160986D01*
X209488519Y-74159567D01*
X209508183Y-74170725D01*
X209532316Y-74201450D01*
X209563317Y-74258726D01*
X209603585Y-74349543D01*
X209655517Y-74480887D01*
X209721515Y-74659745D01*
X209803975Y-74893104D01*
X209905297Y-75187952D01*
X210027880Y-75551275D01*
X210174122Y-75990060D01*
X210346423Y-76511296D01*
X210547182Y-77121968D01*
X210778796Y-77829065D01*
X211043666Y-78639573D01*
X211344189Y-79560479D01*
X211682765Y-80598770D01*
X212061792Y-81761434D01*
X212160401Y-82063896D01*
X212483670Y-83055458D01*
X213403221Y-85875659D01*
G37*
G36*
X198547377Y-83365342D02*
G01*
X198382467Y-84025000D01*
X198115134Y-84645427D01*
X197750131Y-85209974D01*
X197292211Y-85701993D01*
X196746126Y-86104835D01*
X196116629Y-86401851D01*
X195940683Y-86455398D01*
X195694013Y-86498720D01*
X195386784Y-86516652D01*
X194977004Y-86513303D01*
X194921136Y-86511781D01*
X194580514Y-86498169D01*
X194331459Y-86472847D01*
X194126428Y-86425288D01*
X193917879Y-86344969D01*
X193658270Y-86221364D01*
X193586008Y-86184181D01*
X193103788Y-85867341D01*
X192640020Y-85454794D01*
X192235735Y-84987317D01*
X191931966Y-84505691D01*
X191768136Y-84107454D01*
X191622270Y-83590569D01*
X191524503Y-83048288D01*
X191495876Y-82642669D01*
X193484331Y-82642669D01*
X193486496Y-83185032D01*
X193494431Y-83704010D01*
X193508157Y-84175191D01*
X193527693Y-84574165D01*
X193553060Y-84876520D01*
X193584278Y-85057847D01*
X193647890Y-85222345D01*
X193845041Y-85544120D01*
X194102059Y-85817890D01*
X194378314Y-85995669D01*
X194531468Y-86042078D01*
X194843517Y-86083118D01*
X195188689Y-86084697D01*
X195508985Y-86047763D01*
X195746401Y-85973267D01*
X195959418Y-85841995D01*
X196279249Y-85526658D01*
X196490445Y-85117918D01*
X196522195Y-85016885D01*
X196553985Y-84876522D01*
X196578172Y-84702404D01*
X196595740Y-84475900D01*
X196607673Y-84178376D01*
X196614953Y-83791201D01*
X196618566Y-83295742D01*
X196619493Y-82673367D01*
X196619263Y-82395937D01*
X196615979Y-81764040D01*
X196606716Y-81254310D01*
X196588830Y-80849842D01*
X196559677Y-80533727D01*
X196516611Y-80289059D01*
X196456988Y-80098928D01*
X196378163Y-79946429D01*
X196277492Y-79814653D01*
X196152331Y-79686694D01*
X196017888Y-79572441D01*
X195636549Y-79361168D01*
X195223832Y-79263546D01*
X194805412Y-79273693D01*
X194406965Y-79385724D01*
X194054165Y-79593755D01*
X193772688Y-79891904D01*
X193588209Y-80274286D01*
X193559362Y-80434456D01*
X193532975Y-80727582D01*
X193512259Y-81119377D01*
X193497233Y-81585430D01*
X193487917Y-82101331D01*
X193484331Y-82642669D01*
X191495876Y-82642669D01*
X191488808Y-82542518D01*
X191491554Y-82430838D01*
X191547944Y-81956923D01*
X191665074Y-81450110D01*
X191827005Y-80969694D01*
X192017793Y-80574968D01*
X192150051Y-80378715D01*
X192455207Y-80015938D01*
X192815950Y-79666156D01*
X193190926Y-79367854D01*
X193538782Y-79159516D01*
X193602871Y-79130174D01*
X194266076Y-78909563D01*
X194940175Y-78826198D01*
X195607542Y-78875405D01*
X196250553Y-79052511D01*
X196851580Y-79352843D01*
X197392999Y-79771727D01*
X197857184Y-80304490D01*
X198087744Y-80667375D01*
X198380049Y-81317470D01*
X198550921Y-81994928D01*
X198604346Y-82673367D01*
X198605113Y-82683102D01*
X198547377Y-83365342D01*
G37*
G36*
X202277108Y-78937383D02*
G01*
X202900165Y-79157252D01*
X203012016Y-79215198D01*
X203379204Y-79460894D01*
X203757632Y-79782619D01*
X204104091Y-80141131D01*
X204375375Y-80497182D01*
X204578353Y-80858066D01*
X204836835Y-81526605D01*
X204984663Y-82238898D01*
X205015478Y-82958357D01*
X204922924Y-83648390D01*
X204824990Y-83988622D01*
X204546194Y-84620864D01*
X204165666Y-85199422D01*
X203702354Y-85701911D01*
X203175206Y-86105943D01*
X202603169Y-86389134D01*
X202468389Y-86430339D01*
X202081156Y-86495665D01*
X201634911Y-86517893D01*
X201179512Y-86498208D01*
X200764813Y-86437791D01*
X200440671Y-86337826D01*
X200165135Y-86186299D01*
X199728542Y-85835409D01*
X199345325Y-85390605D01*
X199041195Y-84883896D01*
X198841862Y-84347292D01*
X198818701Y-84257350D01*
X198761346Y-84039196D01*
X198721119Y-83892421D01*
X198715553Y-83870296D01*
X198737894Y-83787507D01*
X198873294Y-83765057D01*
X199000738Y-83789058D01*
X199106583Y-83892421D01*
X199222325Y-84187803D01*
X199404487Y-84574027D01*
X199608948Y-84946663D01*
X199812673Y-85264298D01*
X199992630Y-85485518D01*
X200234028Y-85702450D01*
X200562323Y-85908859D01*
X200930191Y-86026952D01*
X201386803Y-86077614D01*
X201767904Y-86070879D01*
X202111867Y-86002188D01*
X202398235Y-85861452D01*
X202630880Y-85639789D01*
X202813676Y-85328317D01*
X202950496Y-84918152D01*
X203045211Y-84400412D01*
X203101697Y-83766215D01*
X203123824Y-83006678D01*
X203115467Y-82112918D01*
X203114819Y-82085252D01*
X203094276Y-81460286D01*
X203062905Y-80960914D01*
X203016689Y-80568078D01*
X202951614Y-80262723D01*
X202863666Y-80025792D01*
X202748828Y-79838228D01*
X202603086Y-79680975D01*
X202550305Y-79635376D01*
X202171507Y-79411759D01*
X201719320Y-79287213D01*
X201231580Y-79272992D01*
X201103986Y-79287341D01*
X200717566Y-79378543D01*
X200457811Y-79527424D01*
X200328029Y-79729616D01*
X200331526Y-79980753D01*
X200471611Y-80276466D01*
X200573652Y-80466421D01*
X200651182Y-80791645D01*
X200620227Y-81098497D01*
X200497393Y-81365825D01*
X200299285Y-81572476D01*
X200042509Y-81697296D01*
X199743671Y-81719133D01*
X199419377Y-81616834D01*
X199199689Y-81437536D01*
X199040422Y-81154211D01*
X198969432Y-80810799D01*
X198993247Y-80440699D01*
X199118398Y-80077311D01*
X199150497Y-80018867D01*
X199378735Y-79713857D01*
X199686546Y-79414861D01*
X200026238Y-79163534D01*
X200350119Y-79001529D01*
X200953957Y-78861253D01*
X201616120Y-78837969D01*
X202277108Y-78937383D01*
G37*
G36*
X189250843Y-78987238D02*
G01*
X189326351Y-78994558D01*
X189587177Y-79009857D01*
X189940755Y-79022237D01*
X190350345Y-79030579D01*
X190779210Y-79033766D01*
X191925485Y-79034398D01*
X191925485Y-79543854D01*
X190542677Y-79543854D01*
X190542677Y-85875659D01*
X191925485Y-85875659D01*
X191925485Y-86312335D01*
X187413164Y-86312335D01*
X187413164Y-85875659D01*
X188868751Y-85875659D01*
X188868751Y-84065708D01*
X188867804Y-83722551D01*
X188857213Y-83005740D01*
X188832951Y-82407032D01*
X188792624Y-81907383D01*
X188733837Y-81487750D01*
X188654195Y-81129090D01*
X188551306Y-80812359D01*
X188422774Y-80518513D01*
X188371357Y-80418120D01*
X188180353Y-80104681D01*
X187988359Y-79870206D01*
X187813085Y-79733674D01*
X187672236Y-79714064D01*
X187663530Y-79717804D01*
X187600999Y-79789588D01*
X187568215Y-79948132D01*
X187558722Y-80222346D01*
X187556984Y-80365801D01*
X187536613Y-80591107D01*
X187482272Y-80745556D01*
X187380249Y-80879645D01*
X187366073Y-80894348D01*
X187127788Y-81038858D01*
X186831954Y-81085611D01*
X186525574Y-81034386D01*
X186255652Y-80884959D01*
X186101934Y-80718893D01*
X185954057Y-80406444D01*
X185915439Y-80057763D01*
X185982951Y-79705622D01*
X186153467Y-79382792D01*
X186423860Y-79122045D01*
X186650653Y-79018712D01*
X186990098Y-78962868D01*
X187350249Y-78982047D01*
X187673377Y-79078269D01*
X187822966Y-79165483D01*
X188125993Y-79431783D01*
X188412883Y-79795177D01*
X188657049Y-80224681D01*
X188868636Y-80671934D01*
X188868694Y-79806639D01*
X188868751Y-78941344D01*
X189250843Y-78987238D01*
G37*
G36*
X174044142Y-81667999D02*
G01*
X174666841Y-81669316D01*
X175204790Y-81671698D01*
X175645829Y-81675097D01*
X175977795Y-81679465D01*
X176188529Y-81684756D01*
X176265867Y-81690922D01*
X176274307Y-81748883D01*
X176261069Y-81915888D01*
X176224717Y-82146320D01*
X176026214Y-82870553D01*
X175690775Y-83580683D01*
X175232343Y-84220194D01*
X174655328Y-84784819D01*
X173964137Y-85270292D01*
X173163178Y-85672346D01*
X172256860Y-85986715D01*
X172041008Y-86051911D01*
X171906239Y-86115766D01*
X171849795Y-86196223D01*
X171838379Y-86319784D01*
X171866129Y-86480529D01*
X171935998Y-86572702D01*
X171942199Y-86574294D01*
X172061884Y-86564788D01*
X172287430Y-86521197D01*
X172588988Y-86449942D01*
X172936714Y-86357442D01*
X173009698Y-86337055D01*
X173522938Y-86195572D01*
X174048348Y-86053640D01*
X174566859Y-85916127D01*
X175059405Y-85787901D01*
X175506916Y-85673833D01*
X175890325Y-85578790D01*
X176190563Y-85507641D01*
X176388562Y-85465254D01*
X176465255Y-85456499D01*
X176486611Y-85509101D01*
X176512884Y-85650756D01*
X176514300Y-85665056D01*
X176508320Y-85722011D01*
X176469086Y-85773781D01*
X176378763Y-85827709D01*
X176219513Y-85891136D01*
X175973500Y-85971407D01*
X175622888Y-86075862D01*
X175149840Y-86211845D01*
X175123888Y-86219256D01*
X173977589Y-86553516D01*
X172872250Y-86889086D01*
X171833201Y-87217953D01*
X170885769Y-87532103D01*
X170055284Y-87823524D01*
X169626949Y-87984646D01*
X169165540Y-88168612D01*
X168711071Y-88359010D01*
X168285058Y-88546139D01*
X167909016Y-88720295D01*
X167604463Y-88871775D01*
X167392912Y-88990876D01*
X167295882Y-89067896D01*
X167273738Y-89098361D01*
X167197631Y-89150731D01*
X167102146Y-89122014D01*
X166921136Y-89044787D01*
X166691848Y-88937067D01*
X166450486Y-88816893D01*
X166233259Y-88702305D01*
X166076371Y-88611340D01*
X166016029Y-88562038D01*
X166022745Y-88555835D01*
X166128409Y-88509164D01*
X166347625Y-88426474D01*
X166661305Y-88314143D01*
X167050365Y-88178555D01*
X167495719Y-88026088D01*
X167978281Y-87863124D01*
X168478965Y-87696043D01*
X168978685Y-87531226D01*
X169458355Y-87375054D01*
X169898890Y-87233907D01*
X170281204Y-87114165D01*
X170586211Y-87022211D01*
X170794824Y-86964423D01*
X170999853Y-86908450D01*
X171124023Y-86843747D01*
X171183594Y-86736846D01*
X171218765Y-86548286D01*
X171230556Y-86456491D01*
X171240216Y-86275118D01*
X171224190Y-86183342D01*
X171220868Y-86180657D01*
X171120761Y-86139977D01*
X170922448Y-86078823D01*
X170664996Y-86009348D01*
X170094552Y-85830375D01*
X169320984Y-85467461D01*
X168622351Y-84993133D01*
X168010941Y-84419498D01*
X167499043Y-83758666D01*
X167098946Y-83022743D01*
X166822939Y-82223838D01*
X166687577Y-81690845D01*
X171457962Y-81672123D01*
X171789168Y-81670914D01*
X172593145Y-81668751D01*
X173348857Y-81667795D01*
X174044142Y-81667999D01*
G37*
G36*
X180748349Y-78859238D02*
G01*
X180999985Y-78887198D01*
X181214005Y-78947017D01*
X181445255Y-79049214D01*
X181871851Y-79319022D01*
X182318979Y-79750454D01*
X182714453Y-80303756D01*
X182973622Y-80736150D01*
X182973622Y-79804708D01*
X182974262Y-79521655D01*
X182978896Y-79228827D01*
X182990737Y-79044500D01*
X183012934Y-78946936D01*
X183048634Y-78914394D01*
X183100986Y-78925138D01*
X183197104Y-78942088D01*
X183418468Y-78962187D01*
X183736039Y-78982283D01*
X184124010Y-79000766D01*
X184556573Y-79016024D01*
X185884797Y-79055038D01*
X185884797Y-79543854D01*
X184647548Y-79543854D01*
X184647548Y-85875659D01*
X185884797Y-85875659D01*
X185884797Y-86312335D01*
X181809152Y-86312335D01*
X181809152Y-85875659D01*
X182988539Y-85875659D01*
X182955608Y-83819642D01*
X182954805Y-83769779D01*
X182942689Y-83118768D01*
X182927656Y-82591105D01*
X182906665Y-82166009D01*
X182876673Y-81822701D01*
X182834641Y-81540400D01*
X182777528Y-81298326D01*
X182702292Y-81075698D01*
X182605893Y-80851737D01*
X182485291Y-80605661D01*
X182362515Y-80399064D01*
X182123468Y-80092508D01*
X181845725Y-79812219D01*
X181564552Y-79592498D01*
X181315217Y-79467644D01*
X181269695Y-79455517D01*
X180999607Y-79415060D01*
X180724737Y-79410939D01*
X180588676Y-79426768D01*
X180397005Y-79495523D01*
X180251672Y-79640062D01*
X180220068Y-79685187D01*
X180187956Y-79745858D01*
X180161828Y-79826357D01*
X180140928Y-79940654D01*
X180124502Y-80102720D01*
X180111794Y-80326523D01*
X180102050Y-80626034D01*
X180094514Y-81015222D01*
X180088431Y-81508058D01*
X180083046Y-82118510D01*
X180077605Y-82860549D01*
X180056373Y-85875659D01*
X181154138Y-85875659D01*
X181154138Y-86312335D01*
X177005714Y-86312335D01*
X177005714Y-85875659D01*
X178300702Y-85875659D01*
X178333765Y-83273796D01*
X178339146Y-82868421D01*
X178350351Y-82185307D01*
X178364449Y-81623714D01*
X178383659Y-81167787D01*
X178410202Y-80801672D01*
X178446298Y-80509515D01*
X178494167Y-80275462D01*
X178556028Y-80083659D01*
X178634103Y-79918252D01*
X178730611Y-79763387D01*
X178847772Y-79603210D01*
X178941480Y-79493132D01*
X179185370Y-79261870D01*
X179440385Y-79072498D01*
X179530796Y-79017928D01*
X179705598Y-78929265D01*
X179879645Y-78879446D01*
X180101667Y-78857535D01*
X180420394Y-78852600D01*
X180748349Y-78859238D01*
G37*
G36*
X172219630Y-72875876D02*
G01*
X172597640Y-73024082D01*
X173070183Y-73299622D01*
X173517298Y-73650832D01*
X173893572Y-74045970D01*
X174092529Y-74311063D01*
X174540811Y-75050510D01*
X174938855Y-75923127D01*
X175285782Y-76926156D01*
X175580712Y-78056838D01*
X175822768Y-79312415D01*
X176011069Y-80690129D01*
X176045731Y-80999441D01*
X166907765Y-80999441D01*
X167044634Y-80236430D01*
X167048484Y-80215022D01*
X167282865Y-79082305D01*
X167564884Y-78007564D01*
X167889173Y-77003261D01*
X168250366Y-76081858D01*
X168643095Y-75255818D01*
X169061994Y-74537601D01*
X169501695Y-73939671D01*
X169956831Y-73474488D01*
X170077765Y-73375596D01*
X170597571Y-73046613D01*
X171136579Y-72851348D01*
X171681645Y-72793277D01*
X172219630Y-72875876D01*
G37*
X74536000Y-109085000D02*
X74536000Y-110355000D01*
X75806000Y-109085000D02*
X74536000Y-109085000D01*
X80506000Y-111397929D02*
X80506000Y-111795000D01*
X75426000Y-120455000D02*
X76186000Y-120455000D01*
X81266000Y-120455000D02*
X81266000Y-114455000D01*
X75966000Y-114455000D02*
X75966000Y-120455000D01*
X82216000Y-114455000D02*
X74476000Y-114455000D01*
X77966000Y-114455000D02*
X77966000Y-120455000D01*
X75606000Y-114455000D02*
X75606000Y-120455000D01*
X75726000Y-114455000D02*
X75726000Y-120455000D01*
X77966000Y-111397929D02*
X77966000Y-111795000D01*
X81266000Y-111397929D02*
X81266000Y-111795000D01*
X77076000Y-111795000D02*
X77076000Y-114455000D01*
X75486000Y-114455000D02*
X75486000Y-120455000D01*
X76086000Y-114455000D02*
X76086000Y-120455000D01*
X78726000Y-111397929D02*
X78726000Y-111795000D01*
X80506000Y-120455000D02*
X81266000Y-120455000D01*
X82216000Y-111795000D02*
X82216000Y-114455000D01*
X78726000Y-120455000D02*
X78726000Y-114455000D01*
X75846000Y-114455000D02*
X75846000Y-120455000D01*
X76186000Y-120455000D02*
X76186000Y-114455000D01*
X74476000Y-114455000D02*
X74476000Y-111795000D01*
X77966000Y-120455000D02*
X78726000Y-120455000D01*
X80506000Y-114455000D02*
X80506000Y-120455000D01*
X76186000Y-111465000D02*
X76186000Y-111795000D01*
X75426000Y-111465000D02*
X75426000Y-111795000D01*
X74476000Y-111795000D02*
X82216000Y-111795000D01*
X75426000Y-114455000D02*
X75426000Y-120455000D01*
X79616000Y-111795000D02*
X79616000Y-114455000D01*
X212966000Y-118035000D02*
X214296000Y-118035000D01*
X211696000Y-115375000D02*
X170996000Y-115375000D01*
X170996000Y-118035000D02*
X170996000Y-115375000D01*
X211696000Y-118035000D02*
X170996000Y-118035000D01*
X214296000Y-118035000D02*
X214296000Y-116705000D01*
X211696000Y-118035000D02*
X211696000Y-115375000D01*
X134801000Y-118035000D02*
X134801000Y-115375000D01*
X146291000Y-118035000D02*
X147621000Y-118035000D01*
X147621000Y-118035000D02*
X147621000Y-116705000D01*
X145021000Y-115375000D02*
X134801000Y-115375000D01*
X145021000Y-118035000D02*
X145021000Y-115375000D01*
X145021000Y-118035000D02*
X134801000Y-118035000D01*
G36*
X153033256Y-95056127D02*
G01*
X153002260Y-95438255D01*
X152951206Y-95752137D01*
X152875189Y-96017177D01*
X152769303Y-96252782D01*
X152628644Y-96478356D01*
X152506838Y-96640169D01*
X152344862Y-96805981D01*
X152161454Y-96925907D01*
X151922894Y-97026119D01*
X151842804Y-97051938D01*
X151490345Y-97105280D01*
X151137428Y-97068387D01*
X150802947Y-96945083D01*
X150505794Y-96739193D01*
X150316627Y-96524216D01*
X150131588Y-96199307D01*
X149988703Y-95808092D01*
X149890743Y-95363685D01*
X149840476Y-94879198D01*
X149840548Y-94690867D01*
X150511598Y-94690867D01*
X150511740Y-94730562D01*
X150534693Y-95245622D01*
X150596976Y-95672028D01*
X150698897Y-96010829D01*
X150840763Y-96263071D01*
X151022883Y-96429802D01*
X151029134Y-96433613D01*
X151283004Y-96539573D01*
X151529519Y-96552306D01*
X151760197Y-96476348D01*
X151966562Y-96316231D01*
X152140132Y-96076489D01*
X152272429Y-95761658D01*
X152295804Y-95680100D01*
X152363266Y-95340201D01*
X152402235Y-94954937D01*
X152413413Y-94547673D01*
X152397504Y-94141774D01*
X152355211Y-93760605D01*
X152287238Y-93427529D01*
X152194288Y-93165911D01*
X152077617Y-92964130D01*
X151917777Y-92801942D01*
X151717222Y-92714023D01*
X151456188Y-92687563D01*
X151330350Y-92689724D01*
X151196241Y-92706759D01*
X151097656Y-92750988D01*
X150997166Y-92834383D01*
X150947339Y-92884327D01*
X150784377Y-93108447D01*
X150661418Y-93393148D01*
X150576365Y-93746443D01*
X150527124Y-94176345D01*
X150511598Y-94690867D01*
X149840548Y-94690867D01*
X149840672Y-94367745D01*
X149894098Y-93842438D01*
X149944867Y-93569594D01*
X150078940Y-93120490D01*
X150263611Y-92754707D01*
X150499141Y-92471781D01*
X150785795Y-92271250D01*
X150795459Y-92266341D01*
X150931225Y-92206264D01*
X151066239Y-92170645D01*
X151233301Y-92153594D01*
X151465210Y-92149220D01*
X151564881Y-92149662D01*
X151756891Y-92156612D01*
X151894639Y-92176855D01*
X152009145Y-92216570D01*
X152131426Y-92281935D01*
X152285611Y-92384087D01*
X152542701Y-92625104D01*
X152744920Y-92926497D01*
X152894139Y-93293520D01*
X152992230Y-93731430D01*
X153041064Y-94245483D01*
X153041799Y-94547673D01*
X153042512Y-94840934D01*
X153033256Y-95056127D01*
G37*
G36*
X163740278Y-101774235D02*
G01*
X163842358Y-101838978D01*
X163931367Y-101937219D01*
X163969449Y-102031602D01*
X163969265Y-102035481D01*
X163929255Y-102113779D01*
X163840498Y-102202893D01*
X163832333Y-102209250D01*
X163733452Y-102276609D01*
X163669207Y-102304326D01*
X163625737Y-102288927D01*
X163540030Y-102216820D01*
X163463942Y-102119555D01*
X163431106Y-102035154D01*
X163438727Y-101996505D01*
X163503444Y-101893662D01*
X163603240Y-101804209D01*
X163700277Y-101765983D01*
X163740278Y-101774235D01*
G37*
G36*
X171995653Y-92912266D02*
G01*
X171334959Y-92883324D01*
X171334959Y-92247100D01*
X171995653Y-92218158D01*
X171995653Y-92912266D01*
G37*
G36*
X181392185Y-93364570D02*
G01*
X181388110Y-93513943D01*
X181375560Y-93645482D01*
X181357488Y-93709221D01*
X181310663Y-93723203D01*
X181189584Y-93731875D01*
X181027141Y-93729613D01*
X180731491Y-93715308D01*
X180717020Y-93384961D01*
X180702549Y-93054615D01*
X181392185Y-93054615D01*
X181392185Y-93364570D01*
G37*
G36*
X173561741Y-93739778D02*
G01*
X173247218Y-93739778D01*
X173225920Y-93739776D01*
X173062407Y-93735608D01*
X172964803Y-93710479D01*
X172918145Y-93645205D01*
X172907469Y-93520604D01*
X172917812Y-93317493D01*
X172934577Y-93054615D01*
X173561741Y-93054615D01*
X173561741Y-93739778D01*
G37*
G36*
X176889680Y-103429952D02*
G01*
X172774580Y-103429952D01*
X172788874Y-103050665D01*
X172803167Y-102671378D01*
X175959815Y-102645552D01*
X175959815Y-100248834D01*
X173215042Y-100248834D01*
X173243630Y-99490260D01*
X174601722Y-99477251D01*
X175959815Y-99464242D01*
X175959815Y-97361358D01*
X172774580Y-97361358D01*
X172788874Y-96982071D01*
X172803167Y-96602784D01*
X174846424Y-96590012D01*
X176889680Y-96577240D01*
X176889680Y-103429952D01*
G37*
G36*
X169610545Y-98241864D02*
G01*
X170075620Y-98332548D01*
X170496218Y-98496021D01*
X170593745Y-98550700D01*
X170894781Y-98782164D01*
X171171316Y-99087653D01*
X171408735Y-99449132D01*
X171592420Y-99848566D01*
X171666797Y-100112942D01*
X171723007Y-100477215D01*
X171745530Y-100872021D01*
X171732657Y-101263842D01*
X171682679Y-101619162D01*
X171587222Y-101962224D01*
X171390652Y-102396649D01*
X171126634Y-102773560D01*
X170802564Y-103084771D01*
X170425840Y-103322095D01*
X170003858Y-103477344D01*
X169899103Y-103492892D01*
X169712525Y-103504904D01*
X169480421Y-103509957D01*
X169230528Y-103506986D01*
X169171471Y-103505122D01*
X168890794Y-103490580D01*
X168670414Y-103465574D01*
X168478556Y-103425343D01*
X168283446Y-103365130D01*
X168245815Y-103351993D01*
X168077069Y-103290308D01*
X167951447Y-103239926D01*
X167893806Y-103210699D01*
X167890335Y-103193664D01*
X167905051Y-103104024D01*
X167942181Y-102964738D01*
X167992614Y-102803931D01*
X168047238Y-102649725D01*
X168096941Y-102530245D01*
X168132612Y-102473614D01*
X168181776Y-102478351D01*
X168296274Y-102516171D01*
X168446905Y-102579528D01*
X168582375Y-102631291D01*
X168866172Y-102699647D01*
X169176677Y-102736606D01*
X169475577Y-102738506D01*
X169724560Y-102701683D01*
X169933572Y-102626136D01*
X170232616Y-102437783D01*
X170479380Y-102173916D01*
X170669060Y-101841741D01*
X170796854Y-101448464D01*
X170857959Y-101001289D01*
X170856231Y-100621698D01*
X170788461Y-100192635D01*
X170650118Y-99821205D01*
X170443845Y-99512336D01*
X170172290Y-99270954D01*
X169838097Y-99101986D01*
X169600739Y-99040598D01*
X169247378Y-99010190D01*
X168879692Y-99035993D01*
X168534673Y-99117568D01*
X168382533Y-99168329D01*
X168262224Y-99206496D01*
X168207842Y-99221089D01*
X168189734Y-99197531D01*
X168145719Y-99104209D01*
X168090187Y-98964152D01*
X168011535Y-98753697D01*
X167968857Y-98614752D01*
X167971240Y-98527376D01*
X168027306Y-98470386D01*
X168145680Y-98422598D01*
X168334984Y-98362829D01*
X168636848Y-98284407D01*
X169123465Y-98225356D01*
X169610545Y-98241864D01*
G37*
G36*
X154563946Y-101137488D02*
G01*
X154497373Y-101657930D01*
X154430083Y-101928590D01*
X154251664Y-102372872D01*
X154004006Y-102752710D01*
X153690996Y-103063753D01*
X153316523Y-103301650D01*
X152884477Y-103462053D01*
X152861299Y-103467739D01*
X152652507Y-103497818D01*
X152360658Y-103510281D01*
X151979083Y-103505447D01*
X151906586Y-103502949D01*
X151503771Y-103477373D01*
X151167795Y-103431291D01*
X150872928Y-103360134D01*
X150593441Y-103259332D01*
X150418909Y-103186408D01*
X150517196Y-102831726D01*
X150525790Y-102800863D01*
X150573759Y-102634109D01*
X150611149Y-102513035D01*
X150630481Y-102462048D01*
X150639850Y-102460642D01*
X150714552Y-102478679D01*
X150835112Y-102521510D01*
X151144552Y-102621927D01*
X151545759Y-102703396D01*
X151951427Y-102739824D01*
X152332442Y-102728872D01*
X152659686Y-102668198D01*
X152678094Y-102662500D01*
X152941293Y-102533480D01*
X153188035Y-102331540D01*
X153395018Y-102079669D01*
X153538938Y-101800852D01*
X153583235Y-101668821D01*
X153626370Y-101507707D01*
X153643052Y-101397095D01*
X153643052Y-101276580D01*
X150132986Y-101276580D01*
X150102124Y-101019643D01*
X150086242Y-100846749D01*
X150090998Y-100542476D01*
X150888920Y-100542476D01*
X153693857Y-100542476D01*
X153664182Y-100407890D01*
X153650564Y-100347430D01*
X153561007Y-100014160D01*
X153459667Y-99751069D01*
X153337601Y-99534235D01*
X153163655Y-99334198D01*
X152903547Y-99156244D01*
X152603533Y-99045551D01*
X152282442Y-99004208D01*
X151959101Y-99034305D01*
X151652341Y-99137929D01*
X151380989Y-99317170D01*
X151166765Y-99562788D01*
X151007135Y-99886523D01*
X150921228Y-100267586D01*
X150888920Y-100542476D01*
X150090998Y-100542476D01*
X150093950Y-100353597D01*
X150177514Y-99880947D01*
X150332184Y-99443591D01*
X150553211Y-99056321D01*
X150835848Y-98733930D01*
X151025000Y-98583780D01*
X151389069Y-98388296D01*
X151795078Y-98268705D01*
X152227864Y-98227309D01*
X152672270Y-98266409D01*
X153113134Y-98388305D01*
X153220645Y-98433030D01*
X153575394Y-98645576D01*
X153883243Y-98933494D01*
X154139761Y-99286322D01*
X154340520Y-99693598D01*
X154481090Y-100144860D01*
X154543385Y-100542476D01*
X154557042Y-100629644D01*
X154563946Y-101137488D01*
G37*
G36*
X165600008Y-101040131D02*
G01*
X165702089Y-101104874D01*
X165791097Y-101203115D01*
X165829179Y-101297498D01*
X165828995Y-101301377D01*
X165788985Y-101379675D01*
X165700228Y-101468789D01*
X165692063Y-101475146D01*
X165593182Y-101542505D01*
X165528937Y-101570222D01*
X165485468Y-101554823D01*
X165399761Y-101482715D01*
X165323672Y-101385451D01*
X165290836Y-101301050D01*
X165298457Y-101262401D01*
X165363174Y-101159558D01*
X165462970Y-101070105D01*
X165560007Y-101031879D01*
X165600008Y-101040131D01*
G37*
G36*
X178260007Y-93364570D02*
G01*
X178255932Y-93513943D01*
X178243382Y-93645482D01*
X178225311Y-93709221D01*
X178178486Y-93723203D01*
X178057407Y-93731875D01*
X177894964Y-93729613D01*
X177599314Y-93715308D01*
X177584843Y-93384961D01*
X177570371Y-93054615D01*
X178260007Y-93054615D01*
X178260007Y-93364570D01*
G37*
G36*
X182933803Y-92247100D02*
G01*
X182948818Y-92510438D01*
X182952539Y-92612667D01*
X182950021Y-92756264D01*
X182938119Y-92840785D01*
X182902744Y-92873982D01*
X182790443Y-92899705D01*
X182592757Y-92907794D01*
X182273109Y-92907794D01*
X182273109Y-92218158D01*
X182933803Y-92247100D01*
G37*
G36*
X177476963Y-93364570D02*
G01*
X177472888Y-93513943D01*
X177460338Y-93645482D01*
X177442266Y-93709221D01*
X177395442Y-93723203D01*
X177274363Y-93731875D01*
X177111920Y-93729613D01*
X176816269Y-93715308D01*
X176801798Y-93384961D01*
X176787327Y-93054615D01*
X177476963Y-93054615D01*
X177476963Y-93364570D01*
G37*
G36*
X181382186Y-92577447D02*
G01*
X181396657Y-92907794D01*
X180702549Y-92907794D01*
X180731491Y-92247100D01*
X181367714Y-92247100D01*
X181382186Y-92577447D01*
G37*
G36*
X181820412Y-93064614D02*
G01*
X182150759Y-93079085D01*
X182165773Y-93342423D01*
X182169494Y-93444652D01*
X182166976Y-93588248D01*
X182155074Y-93672769D01*
X182119699Y-93705966D01*
X182007399Y-93731690D01*
X181809713Y-93739778D01*
X181490065Y-93739778D01*
X181490065Y-93050142D01*
X181820412Y-93064614D01*
G37*
G36*
X177481435Y-92907794D02*
G01*
X176787327Y-92907794D01*
X176816269Y-92247100D01*
X177452493Y-92247100D01*
X177481435Y-92907794D01*
G37*
G36*
X155490784Y-92223673D02*
G01*
X155574242Y-92233877D01*
X155660283Y-92261905D01*
X155763918Y-92316111D01*
X155900163Y-92404850D01*
X156084028Y-92536476D01*
X156330528Y-92719342D01*
X156502180Y-92847603D01*
X156701229Y-92996437D01*
X156861409Y-93116325D01*
X156969532Y-93197395D01*
X157012413Y-93229775D01*
X157005301Y-93256118D01*
X156956276Y-93343487D01*
X156874783Y-93468175D01*
X156817261Y-93546056D01*
X156724132Y-93641264D01*
X156662069Y-93658265D01*
X156637473Y-93641746D01*
X156542517Y-93572540D01*
X156401501Y-93466584D01*
X156234865Y-93339146D01*
X156140941Y-93267598D01*
X155992031Y-93158089D01*
X155882499Y-93082687D01*
X155831108Y-93054615D01*
X155824025Y-93090758D01*
X155816526Y-93214320D01*
X155809887Y-93415009D01*
X155804333Y-93681749D01*
X155800088Y-94003464D01*
X155797377Y-94369081D01*
X155796424Y-94767524D01*
X155796424Y-96480433D01*
X156775229Y-96480433D01*
X156775229Y-97018776D01*
X154377156Y-97018776D01*
X154377156Y-96484392D01*
X154780913Y-96470178D01*
X155184670Y-96455963D01*
X155197425Y-94339297D01*
X155210180Y-92222630D01*
X155437888Y-92222630D01*
X155490784Y-92223673D01*
G37*
G36*
X186049216Y-92485508D02*
G01*
X186054212Y-92586290D01*
X186056163Y-92735615D01*
X186050157Y-92828090D01*
X186043740Y-92847683D01*
X185999053Y-92884381D01*
X185897922Y-92902767D01*
X185719810Y-92907794D01*
X185405287Y-92907794D01*
X185405287Y-92222630D01*
X186032451Y-92222630D01*
X186049216Y-92485508D01*
G37*
G36*
X182603456Y-93064614D02*
G01*
X182933803Y-93079085D01*
X182948818Y-93342423D01*
X182952539Y-93444652D01*
X182950021Y-93588248D01*
X182938119Y-93672769D01*
X182902744Y-93705966D01*
X182790443Y-93731690D01*
X182592757Y-93739778D01*
X182273109Y-93739778D01*
X182273109Y-93050142D01*
X182603456Y-93064614D01*
G37*
G36*
X184485282Y-93311551D02*
G01*
X184490709Y-93405926D01*
X184492440Y-93557489D01*
X184484298Y-93654133D01*
X184474292Y-93680749D01*
X184427635Y-93717321D01*
X184327410Y-93735109D01*
X184151602Y-93739778D01*
X183839198Y-93739778D01*
X183839198Y-93054615D01*
X184465975Y-93054615D01*
X184485282Y-93311551D01*
G37*
G36*
X179830568Y-92907794D02*
G01*
X179136460Y-92907794D01*
X179165402Y-92247100D01*
X179801626Y-92247100D01*
X179830568Y-92907794D01*
G37*
G36*
X185266172Y-92485508D02*
G01*
X185271168Y-92586290D01*
X185273119Y-92735615D01*
X185267113Y-92828090D01*
X185260695Y-92847683D01*
X185216008Y-92884381D01*
X185114878Y-92902767D01*
X184936766Y-92907794D01*
X184622242Y-92907794D01*
X184622242Y-92222630D01*
X185249407Y-92222630D01*
X185266172Y-92485508D01*
G37*
G36*
X171995653Y-93744251D02*
G01*
X171665306Y-93729779D01*
X171334959Y-93715308D01*
X171334959Y-93079085D01*
X171665306Y-93064614D01*
X171995653Y-93050142D01*
X171995653Y-93744251D01*
G37*
G36*
X170682346Y-96956935D02*
G01*
X170596756Y-96995338D01*
X170474175Y-97040022D01*
X170405372Y-97050830D01*
X170396157Y-97042224D01*
X170351807Y-96962793D01*
X170284397Y-96814483D01*
X170201324Y-96614130D01*
X170109985Y-96378567D01*
X169863260Y-95721859D01*
X168763350Y-95708735D01*
X167663440Y-95695612D01*
X167403141Y-96403809D01*
X167142843Y-97112007D01*
X166867737Y-96990342D01*
X166739628Y-96932942D01*
X166629365Y-96881810D01*
X166583464Y-96858082D01*
X166584100Y-96854757D01*
X166607841Y-96787154D01*
X166663029Y-96639164D01*
X166746350Y-96419434D01*
X166854492Y-96136609D01*
X166984141Y-95799337D01*
X167131983Y-95416262D01*
X167248797Y-95114591D01*
X167892827Y-95114591D01*
X167914922Y-95126144D01*
X168020574Y-95139516D01*
X168201445Y-95149912D01*
X168444586Y-95156649D01*
X168737047Y-95159046D01*
X168840063Y-95158916D01*
X169140195Y-95156216D01*
X169355729Y-95149465D01*
X169496947Y-95137929D01*
X169574136Y-95120873D01*
X169597580Y-95097562D01*
X169595214Y-95084256D01*
X169566551Y-94992367D01*
X169510234Y-94831820D01*
X169432411Y-94618665D01*
X169339230Y-94368953D01*
X169236838Y-94098736D01*
X169131384Y-93824064D01*
X169029015Y-93560987D01*
X168935879Y-93325558D01*
X168858125Y-93133827D01*
X168801899Y-93001844D01*
X168773350Y-92945660D01*
X168771564Y-92945429D01*
X168741596Y-92993877D01*
X168682929Y-93119488D01*
X168600612Y-93309826D01*
X168499695Y-93552452D01*
X168385226Y-93834929D01*
X168262256Y-94144819D01*
X168135833Y-94469685D01*
X168011007Y-94797088D01*
X167892827Y-95114591D01*
X167248797Y-95114591D01*
X167294706Y-94996032D01*
X167468995Y-94547293D01*
X168363694Y-92247100D01*
X168723701Y-92233356D01*
X169083707Y-92219613D01*
X169997182Y-94533549D01*
X170219838Y-95097562D01*
X170910658Y-96847485D01*
X170682346Y-96956935D01*
G37*
G36*
X147806925Y-96930895D02*
G01*
X148137271Y-96945366D01*
X148235708Y-97728410D01*
X148334145Y-98511455D01*
X148786286Y-98525526D01*
X149238427Y-98539598D01*
X149238427Y-99318969D01*
X148357503Y-99318969D01*
X148356653Y-100628121D01*
X148354947Y-101021294D01*
X148348009Y-101437853D01*
X148334472Y-101778662D01*
X148312989Y-102056002D01*
X148282208Y-102282155D01*
X148240782Y-102469402D01*
X148187359Y-102630024D01*
X148120590Y-102776305D01*
X148097957Y-102817732D01*
X147910856Y-103066391D01*
X147666466Y-103281665D01*
X147399648Y-103431855D01*
X147383798Y-103437994D01*
X147143853Y-103495443D01*
X146848439Y-103518219D01*
X146530561Y-103507318D01*
X146223223Y-103463733D01*
X145959429Y-103388460D01*
X145875954Y-103355682D01*
X145712131Y-103287234D01*
X145620212Y-103230011D01*
X145586810Y-103164849D01*
X145598537Y-103072584D01*
X145642007Y-102934052D01*
X145673386Y-102838018D01*
X145732009Y-102670487D01*
X145780690Y-102577337D01*
X145834659Y-102545725D01*
X145909143Y-102562804D01*
X146019368Y-102615730D01*
X146071724Y-102640244D01*
X146218274Y-102688501D01*
X146395251Y-102713306D01*
X146636004Y-102720318D01*
X146833435Y-102718905D01*
X146964444Y-102708923D01*
X147052109Y-102681756D01*
X147123948Y-102628791D01*
X147207475Y-102541413D01*
X147250760Y-102489921D01*
X147356779Y-102328071D01*
X147423788Y-102174361D01*
X147432813Y-102125980D01*
X147447355Y-101968981D01*
X147459367Y-101731786D01*
X147468457Y-101425751D01*
X147474234Y-101062234D01*
X147476305Y-100652591D01*
X147476578Y-99318969D01*
X146057310Y-99318969D01*
X146057310Y-98535925D01*
X147476578Y-98535925D01*
X147476578Y-96916424D01*
X147806925Y-96930895D01*
G37*
G36*
X163348755Y-101040131D02*
G01*
X163450836Y-101104874D01*
X163539845Y-101203115D01*
X163577926Y-101297498D01*
X163577743Y-101301377D01*
X163537733Y-101379675D01*
X163448976Y-101468789D01*
X163440811Y-101475146D01*
X163341930Y-101542505D01*
X163277685Y-101570222D01*
X163234215Y-101554823D01*
X163148508Y-101482715D01*
X163072420Y-101385451D01*
X163039583Y-101301050D01*
X163047205Y-101262401D01*
X163111922Y-101159558D01*
X163211718Y-101070105D01*
X163308755Y-101031879D01*
X163348755Y-101040131D01*
G37*
G36*
X174344786Y-92907794D02*
G01*
X174031910Y-92907794D01*
X173920276Y-92905375D01*
X173762624Y-92885723D01*
X173699002Y-92846618D01*
X173692492Y-92796549D01*
X173691002Y-92668350D01*
X173698295Y-92504037D01*
X173717621Y-92222630D01*
X174344786Y-92222630D01*
X174344786Y-92907794D01*
G37*
G36*
X178250008Y-92577447D02*
G01*
X178264480Y-92907794D01*
X177570371Y-92907794D01*
X177584843Y-92577447D01*
X177599314Y-92247100D01*
X178235537Y-92247100D01*
X178250008Y-92577447D01*
G37*
G36*
X183386501Y-93064614D02*
G01*
X183716847Y-93079085D01*
X183722957Y-93372726D01*
X183723460Y-93506115D01*
X183718220Y-93637820D01*
X183707834Y-93703073D01*
X183658425Y-93720743D01*
X183536679Y-93734507D01*
X183371377Y-93739778D01*
X183056154Y-93739778D01*
X183056154Y-93050142D01*
X183386501Y-93064614D01*
G37*
G36*
X186518678Y-93064614D02*
G01*
X186849025Y-93079085D01*
X186855135Y-93372726D01*
X186855638Y-93506115D01*
X186850397Y-93637820D01*
X186840011Y-93703073D01*
X186790603Y-93720743D01*
X186668856Y-93734507D01*
X186503555Y-93739778D01*
X186188331Y-93739778D01*
X186188331Y-93050142D01*
X186518678Y-93064614D01*
G37*
G36*
X158096548Y-98249733D02*
G01*
X158133882Y-98255217D01*
X158415751Y-98318804D01*
X158666286Y-98424563D01*
X158912379Y-98586615D01*
X159180924Y-98819080D01*
X159515884Y-99135064D01*
X159515884Y-98291223D01*
X160347869Y-98291223D01*
X160347869Y-103429952D01*
X159466944Y-103429952D01*
X159466944Y-100041717D01*
X159291229Y-99802345D01*
X159233388Y-99726635D01*
X158946139Y-99425543D01*
X158629069Y-99202213D01*
X158293546Y-99063320D01*
X157950943Y-99015539D01*
X157942507Y-99015559D01*
X157662064Y-99047011D01*
X157437987Y-99145013D01*
X157247198Y-99319532D01*
X157234870Y-99334328D01*
X157168737Y-99421842D01*
X157114595Y-99515262D01*
X157071261Y-99624807D01*
X157037549Y-99760695D01*
X157012274Y-99933145D01*
X156994252Y-100152374D01*
X156982298Y-100428601D01*
X156975226Y-100772045D01*
X156971851Y-101192923D01*
X156970990Y-101701455D01*
X156970990Y-103429952D01*
X156090065Y-103429952D01*
X156090915Y-101655867D01*
X156091995Y-101177742D01*
X156096261Y-100701817D01*
X156105245Y-100304663D01*
X156120502Y-99975996D01*
X156143589Y-99705534D01*
X156176060Y-99482993D01*
X156219472Y-99298090D01*
X156275380Y-99140541D01*
X156345339Y-99000064D01*
X156430905Y-98866374D01*
X156533634Y-98729188D01*
X156713759Y-98552120D01*
X156995340Y-98386103D01*
X157331169Y-98276837D01*
X157703990Y-98229616D01*
X158096548Y-98249733D01*
G37*
G36*
X164474382Y-102116817D02*
G01*
X164576462Y-102181560D01*
X164665471Y-102279800D01*
X164703553Y-102374184D01*
X164703369Y-102378063D01*
X164663359Y-102456360D01*
X164574602Y-102545475D01*
X164566437Y-102551832D01*
X164467556Y-102619191D01*
X164403311Y-102646907D01*
X164359841Y-102631509D01*
X164274134Y-102559401D01*
X164198046Y-102462137D01*
X164165210Y-102377736D01*
X164172831Y-102339087D01*
X164237548Y-102236244D01*
X164337344Y-102146791D01*
X164434381Y-102108564D01*
X164474382Y-102116817D01*
G37*
G36*
X186849025Y-92247100D02*
G01*
X186858011Y-92516272D01*
X186859944Y-92624457D01*
X186856782Y-92765919D01*
X186847312Y-92846618D01*
X186827023Y-92868835D01*
X186715021Y-92898036D01*
X186507979Y-92907794D01*
X186188331Y-92907794D01*
X186188331Y-92218158D01*
X186849025Y-92247100D01*
G37*
G36*
X165208486Y-101774235D02*
G01*
X165310567Y-101838978D01*
X165399575Y-101937219D01*
X165437657Y-102031602D01*
X165437473Y-102035481D01*
X165397463Y-102113779D01*
X165308706Y-102202893D01*
X165300541Y-102209250D01*
X165201660Y-102276609D01*
X165137415Y-102304326D01*
X165093945Y-102288927D01*
X165008238Y-102216820D01*
X164932150Y-102119555D01*
X164899314Y-102035154D01*
X164906935Y-101996505D01*
X164971652Y-101893662D01*
X165071448Y-101804209D01*
X165168485Y-101765983D01*
X165208486Y-101774235D01*
G37*
G36*
X182150759Y-92247100D02*
G01*
X182165773Y-92510438D01*
X182169494Y-92612667D01*
X182166976Y-92756264D01*
X182155074Y-92840785D01*
X182119699Y-92873982D01*
X182007399Y-92899705D01*
X181809713Y-92907794D01*
X181490065Y-92907794D01*
X181490065Y-92218158D01*
X182150759Y-92247100D01*
G37*
G36*
X179047524Y-92907794D02*
G01*
X178353416Y-92907794D01*
X178382358Y-92247100D01*
X179018582Y-92247100D01*
X179047524Y-92907794D01*
G37*
G36*
X183888138Y-103474007D02*
G01*
X183606732Y-103491666D01*
X183431033Y-103501075D01*
X183089482Y-103512464D01*
X182723854Y-103517520D01*
X182354459Y-103516533D01*
X182001605Y-103509794D01*
X181685599Y-103497593D01*
X181426749Y-103480218D01*
X181245364Y-103457961D01*
X180959644Y-103393972D01*
X180612009Y-103286845D01*
X180294231Y-103158764D01*
X180040288Y-103022023D01*
X179861470Y-102894574D01*
X179492969Y-102547456D01*
X179182094Y-102127200D01*
X178933838Y-101641272D01*
X178753192Y-101097135D01*
X178713368Y-100907687D01*
X178666552Y-100528943D01*
X178646657Y-100109994D01*
X178647605Y-100053073D01*
X179573057Y-100053073D01*
X179591549Y-100456411D01*
X179676685Y-100984495D01*
X179829609Y-101447672D01*
X180048911Y-101843571D01*
X180333180Y-102169823D01*
X180681007Y-102424058D01*
X181090981Y-102603907D01*
X181208158Y-102638163D01*
X181377452Y-102674036D01*
X181575672Y-102698850D01*
X181825784Y-102715247D01*
X182150759Y-102725873D01*
X182273753Y-102728333D01*
X182522650Y-102730690D01*
X182730219Y-102729143D01*
X182877627Y-102723940D01*
X182946038Y-102715332D01*
X182957792Y-102666453D01*
X182968885Y-102529975D01*
X182978750Y-102316940D01*
X182987358Y-102038237D01*
X182994681Y-101704752D01*
X183000691Y-101327373D01*
X183005359Y-100916987D01*
X183008657Y-100484481D01*
X183010556Y-100040741D01*
X183011029Y-99596656D01*
X183010047Y-99163112D01*
X183007581Y-98750997D01*
X183003603Y-98371197D01*
X182998085Y-98034600D01*
X182990998Y-97752093D01*
X182982315Y-97534563D01*
X182972006Y-97392897D01*
X182960043Y-97337982D01*
X182956506Y-97336064D01*
X182868614Y-97318284D01*
X182706972Y-97306859D01*
X182493513Y-97301524D01*
X182250172Y-97302009D01*
X181998882Y-97308048D01*
X181761576Y-97319372D01*
X181560189Y-97335716D01*
X181416655Y-97356810D01*
X181282198Y-97389429D01*
X180855790Y-97547325D01*
X180494160Y-97776666D01*
X180191019Y-98082187D01*
X179940079Y-98468625D01*
X179854343Y-98638067D01*
X179718584Y-98964372D01*
X179631484Y-99287242D01*
X179585492Y-99639276D01*
X179573057Y-100053073D01*
X178647605Y-100053073D01*
X178653744Y-99684399D01*
X178687879Y-99285718D01*
X178749124Y-98947511D01*
X178859195Y-98588806D01*
X179075058Y-98105159D01*
X179350521Y-97671148D01*
X179675955Y-97301206D01*
X180041732Y-97009767D01*
X180104873Y-96970210D01*
X180431249Y-96802477D01*
X180796365Y-96675083D01*
X181211030Y-96586196D01*
X181686050Y-96533985D01*
X182232235Y-96516619D01*
X182860393Y-96532267D01*
X183092534Y-96543113D01*
X183354416Y-96555247D01*
X183571897Y-96565211D01*
X183727186Y-96572190D01*
X183802493Y-96575370D01*
X183813940Y-96577567D01*
X183828906Y-96590475D01*
X183841719Y-96620884D01*
X183852546Y-96675493D01*
X183861553Y-96760999D01*
X183868906Y-96884101D01*
X183874771Y-97051497D01*
X183879315Y-97269885D01*
X183882704Y-97545964D01*
X183885104Y-97886432D01*
X183886681Y-98297988D01*
X183887601Y-98787329D01*
X183888032Y-99361154D01*
X183888070Y-99596656D01*
X183888138Y-100026161D01*
X183888138Y-103474007D01*
G37*
G36*
X173561741Y-92907794D02*
G01*
X173247218Y-92907794D01*
X173225920Y-92907791D01*
X173062407Y-92903624D01*
X172964803Y-92878494D01*
X172918145Y-92813221D01*
X172907469Y-92688619D01*
X172917812Y-92485508D01*
X172934577Y-92222630D01*
X173561741Y-92222630D01*
X173561741Y-92907794D01*
G37*
G36*
X161528152Y-95414232D02*
G01*
X161437679Y-95860103D01*
X161300274Y-96232977D01*
X161114570Y-96538643D01*
X161080324Y-96582349D01*
X160898132Y-96776760D01*
X160697418Y-96914172D01*
X160438501Y-97023011D01*
X160306337Y-97064474D01*
X160068604Y-97107746D01*
X159832331Y-97098243D01*
X159555159Y-97036618D01*
X159276303Y-96919069D01*
X159002933Y-96708521D01*
X158773833Y-96421527D01*
X158591788Y-96065133D01*
X158459581Y-95646384D01*
X158379993Y-95172324D01*
X158355807Y-94649999D01*
X158359051Y-94596233D01*
X159051040Y-94596233D01*
X159051057Y-94617723D01*
X159055940Y-94973339D01*
X159068792Y-95284650D01*
X159088594Y-95533838D01*
X159114327Y-95703086D01*
X159157044Y-95852577D01*
X159267029Y-96103054D01*
X159406462Y-96309432D01*
X159559224Y-96444840D01*
X159698858Y-96505501D01*
X159858466Y-96546461D01*
X159948331Y-96555185D01*
X160196518Y-96520396D01*
X160412489Y-96397428D01*
X160594097Y-96190176D01*
X160739193Y-95902536D01*
X160845629Y-95538402D01*
X160911259Y-95101669D01*
X160933932Y-94596233D01*
X160923427Y-94184027D01*
X160876698Y-93728603D01*
X160791277Y-93358750D01*
X160665741Y-93071433D01*
X160498671Y-92863618D01*
X160288644Y-92732269D01*
X160034242Y-92674352D01*
X159895575Y-92674611D01*
X159658420Y-92741199D01*
X159455593Y-92896047D01*
X159285085Y-93140966D01*
X159144891Y-93477771D01*
X159124790Y-93543109D01*
X159093884Y-93674027D01*
X159072678Y-93825474D01*
X159059549Y-94016774D01*
X159052877Y-94267252D01*
X159051040Y-94596233D01*
X158359051Y-94596233D01*
X158389807Y-94086454D01*
X158429255Y-93790449D01*
X158524111Y-93345820D01*
X158656273Y-92980887D01*
X158830093Y-92687198D01*
X159049926Y-92456299D01*
X159320123Y-92279736D01*
X159404133Y-92237279D01*
X159551150Y-92171939D01*
X159678352Y-92138652D01*
X159824850Y-92129533D01*
X160029757Y-92136700D01*
X160279926Y-92161242D01*
X160548681Y-92231606D01*
X160776159Y-92356672D01*
X160991264Y-92548830D01*
X161132704Y-92720252D01*
X161328117Y-93069280D01*
X161467152Y-93492628D01*
X161550499Y-93992666D01*
X161578847Y-94571763D01*
X161578401Y-94596233D01*
X161573060Y-94889572D01*
X161528152Y-95414232D01*
G37*
G36*
X186049216Y-93317493D02*
G01*
X186054212Y-93418275D01*
X186056163Y-93567600D01*
X186050157Y-93660075D01*
X186043740Y-93679668D01*
X185999053Y-93716366D01*
X185897922Y-93734751D01*
X185719810Y-93739778D01*
X185405287Y-93739778D01*
X185405287Y-93054615D01*
X186032451Y-93054615D01*
X186049216Y-93317493D01*
G37*
G36*
X174344786Y-93739778D02*
G01*
X174029323Y-93739778D01*
X173855866Y-93735258D01*
X173750846Y-93709132D01*
X173699493Y-93642443D01*
X173687035Y-93516235D01*
X173698702Y-93311551D01*
X173718009Y-93054615D01*
X174344786Y-93054615D01*
X174344786Y-93739778D01*
G37*
G36*
X184485689Y-92504037D02*
G01*
X184491846Y-92624987D01*
X184492779Y-92766742D01*
X184484982Y-92846618D01*
X184465514Y-92868291D01*
X184355323Y-92897858D01*
X184152074Y-92907794D01*
X183839198Y-92907794D01*
X183839198Y-92222630D01*
X184466363Y-92222630D01*
X184485689Y-92504037D01*
G37*
G36*
X172778697Y-92907794D02*
G01*
X172464174Y-92907794D01*
X172442876Y-92907791D01*
X172279362Y-92903624D01*
X172181759Y-92878494D01*
X172135101Y-92813221D01*
X172124425Y-92688619D01*
X172134768Y-92485508D01*
X172151532Y-92222630D01*
X172778697Y-92222630D01*
X172778697Y-92907794D01*
G37*
G36*
X186922435Y-103429952D02*
G01*
X186041510Y-103429952D01*
X186041510Y-96578314D01*
X186922435Y-96578314D01*
X186922435Y-103429952D01*
G37*
G36*
X175910874Y-93744251D02*
G01*
X175580528Y-93729779D01*
X175250181Y-93715308D01*
X175250181Y-93079085D01*
X175580528Y-93064614D01*
X175910874Y-93050142D01*
X175910874Y-93744251D01*
G37*
G36*
X183386501Y-92232629D02*
G01*
X183716847Y-92247100D01*
X183725834Y-92516272D01*
X183727767Y-92624457D01*
X183724605Y-92765919D01*
X183715135Y-92846618D01*
X183694846Y-92868835D01*
X183582843Y-92898036D01*
X183375802Y-92907794D01*
X183056154Y-92907794D01*
X183056154Y-92218158D01*
X183386501Y-92232629D01*
G37*
G36*
X180609140Y-93364570D02*
G01*
X180605065Y-93513943D01*
X180592515Y-93645482D01*
X180574444Y-93709221D01*
X180527619Y-93723203D01*
X180406540Y-93731875D01*
X180244097Y-93729613D01*
X179948447Y-93715308D01*
X179933976Y-93384961D01*
X179919504Y-93054615D01*
X180609140Y-93054615D01*
X180609140Y-93364570D01*
G37*
G36*
X179043052Y-93364570D02*
G01*
X179038977Y-93513943D01*
X179026427Y-93645482D01*
X179008355Y-93709221D01*
X178961531Y-93723203D01*
X178840451Y-93731875D01*
X178678008Y-93729613D01*
X178382358Y-93715308D01*
X178367887Y-93384961D01*
X178353416Y-93054615D01*
X179043052Y-93054615D01*
X179043052Y-93364570D01*
G37*
G36*
X176693919Y-92912266D02*
G01*
X176033225Y-92883324D01*
X176033225Y-92247100D01*
X176693919Y-92218158D01*
X176693919Y-92912266D01*
G37*
G36*
X164934203Y-92174570D02*
G01*
X164958186Y-92181435D01*
X165104504Y-92231767D01*
X165279357Y-92301062D01*
X165452574Y-92376329D01*
X165593983Y-92444579D01*
X165673413Y-92492823D01*
X165667104Y-92524712D01*
X165626641Y-92622540D01*
X165560097Y-92760795D01*
X165487939Y-92897652D01*
X165437735Y-92965940D01*
X165394990Y-92973489D01*
X165342067Y-92934338D01*
X165327599Y-92921941D01*
X165166875Y-92826429D01*
X164949904Y-92743576D01*
X164713639Y-92685213D01*
X164495032Y-92663168D01*
X164290225Y-92682137D01*
X164037732Y-92770872D01*
X163843913Y-92923525D01*
X163719646Y-93130549D01*
X163675807Y-93382394D01*
X163677757Y-93446708D01*
X163737465Y-93713151D01*
X163880279Y-93928227D01*
X164105863Y-94091674D01*
X164413883Y-94203231D01*
X164804002Y-94262635D01*
X165192955Y-94292629D01*
X165192955Y-94754187D01*
X164740258Y-94778458D01*
X164611285Y-94787196D01*
X164306391Y-94828862D01*
X164096138Y-94895242D01*
X163871779Y-95047919D01*
X163702705Y-95256908D01*
X163601585Y-95499242D01*
X163573327Y-95755661D01*
X163622840Y-96006906D01*
X163755033Y-96233718D01*
X163876190Y-96358145D01*
X164050904Y-96468807D01*
X164265707Y-96526925D01*
X164546787Y-96542721D01*
X164646479Y-96540914D01*
X164843806Y-96522824D01*
X165015818Y-96475840D01*
X165213486Y-96388144D01*
X165223247Y-96383346D01*
X165379063Y-96308796D01*
X165497270Y-96255862D01*
X165552954Y-96235732D01*
X165576427Y-96257679D01*
X165633931Y-96346236D01*
X165706376Y-96479541D01*
X165829923Y-96723350D01*
X165533131Y-96873170D01*
X165382578Y-96939888D01*
X165157270Y-97017381D01*
X164957711Y-97063856D01*
X164807338Y-97085239D01*
X164638942Y-97103845D01*
X164502584Y-97106680D01*
X164359653Y-97093816D01*
X164171534Y-97065326D01*
X163961642Y-97019676D01*
X163616586Y-96880030D01*
X163341214Y-96673887D01*
X163139122Y-96405338D01*
X163013905Y-96078475D01*
X162969160Y-95697389D01*
X162971607Y-95512491D01*
X162990423Y-95356032D01*
X163035555Y-95219426D01*
X163116623Y-95061166D01*
X163277783Y-94831655D01*
X163523773Y-94620802D01*
X163579579Y-94583509D01*
X163692247Y-94504031D01*
X163737645Y-94454865D01*
X163726363Y-94418168D01*
X163668988Y-94376101D01*
X163518290Y-94267225D01*
X163282401Y-94031853D01*
X163131114Y-93765303D01*
X163056074Y-93455025D01*
X163049363Y-93374893D01*
X163079518Y-93051998D01*
X163197958Y-92756718D01*
X163397423Y-92502657D01*
X163670653Y-92303421D01*
X163715239Y-92280754D01*
X163991566Y-92186037D01*
X164312377Y-92134162D01*
X164639360Y-92129038D01*
X164934203Y-92174570D01*
G37*
G36*
X175910874Y-92912266D02*
G01*
X175580528Y-92897795D01*
X175250181Y-92883324D01*
X175250181Y-92247100D01*
X175580528Y-92232629D01*
X175910874Y-92218158D01*
X175910874Y-92912266D01*
G37*
G36*
X185266172Y-93317493D02*
G01*
X185271168Y-93418275D01*
X185273119Y-93567600D01*
X185267113Y-93660075D01*
X185260695Y-93679668D01*
X185216008Y-93716366D01*
X185114878Y-93734751D01*
X184936766Y-93739778D01*
X184622242Y-93739778D01*
X184622242Y-93054615D01*
X185249407Y-93054615D01*
X185266172Y-93317493D01*
G37*
G36*
X175127830Y-93744251D02*
G01*
X174797483Y-93729779D01*
X174467136Y-93715308D01*
X174467136Y-93079085D01*
X174797483Y-93064614D01*
X175127830Y-93050142D01*
X175127830Y-93744251D01*
G37*
G36*
X172778697Y-93739778D02*
G01*
X172464174Y-93739778D01*
X172442876Y-93739776D01*
X172279362Y-93735608D01*
X172181759Y-93710479D01*
X172135101Y-93645205D01*
X172124425Y-93520604D01*
X172134768Y-93317493D01*
X172151532Y-93054615D01*
X172778697Y-93054615D01*
X172778697Y-93739778D01*
G37*
G36*
X176693919Y-93744251D02*
G01*
X176363572Y-93729779D01*
X176033225Y-93715308D01*
X176033225Y-93079085D01*
X176363572Y-93064614D01*
X176693919Y-93050142D01*
X176693919Y-93744251D01*
G37*
G36*
X166875252Y-101585031D02*
G01*
X166827813Y-101767628D01*
X166643907Y-102229879D01*
X166384407Y-102632569D01*
X166053643Y-102970928D01*
X165655946Y-103240185D01*
X165195646Y-103435569D01*
X165131921Y-103454484D01*
X164750222Y-103519968D01*
X164331206Y-103524830D01*
X163905439Y-103472456D01*
X163503489Y-103366235D01*
X163155922Y-103209552D01*
X163098438Y-103174138D01*
X162851108Y-102985085D01*
X162608383Y-102748983D01*
X162398276Y-102495350D01*
X162248802Y-102253702D01*
X162125857Y-101951795D01*
X162006019Y-101485529D01*
X161959195Y-101083960D01*
X162813374Y-101083960D01*
X162877271Y-101495332D01*
X163019046Y-101892164D01*
X163162180Y-102125497D01*
X163378340Y-102362548D01*
X163628362Y-102552450D01*
X163885206Y-102670894D01*
X163937477Y-102684851D01*
X164166563Y-102722863D01*
X164421893Y-102738677D01*
X164663240Y-102731121D01*
X164850373Y-102699023D01*
X164942983Y-102667611D01*
X165282212Y-102491196D01*
X165568518Y-102240666D01*
X165795755Y-101926164D01*
X165957777Y-101557834D01*
X166048436Y-101145819D01*
X166061587Y-100700262D01*
X166033174Y-100434318D01*
X165929473Y-100020529D01*
X165759606Y-99670143D01*
X165526979Y-99387956D01*
X165235000Y-99178764D01*
X164887079Y-99047364D01*
X164843756Y-99037511D01*
X164780936Y-99038236D01*
X164756574Y-99090723D01*
X164752493Y-99218019D01*
X164752493Y-99421322D01*
X164091799Y-99392380D01*
X164092297Y-99233324D01*
X164090031Y-99177260D01*
X164063665Y-99099518D01*
X163997296Y-99080999D01*
X163877955Y-99121269D01*
X163692676Y-99219891D01*
X163531454Y-99327101D01*
X163261935Y-99589129D01*
X163051636Y-99910632D01*
X162904288Y-100276807D01*
X162823624Y-100672851D01*
X162813374Y-101083960D01*
X161959195Y-101083960D01*
X161948672Y-100993713D01*
X161956834Y-100507131D01*
X162033520Y-100056567D01*
X162127405Y-99766853D01*
X162342871Y-99334776D01*
X162626791Y-98966562D01*
X162971941Y-98666900D01*
X163371097Y-98440479D01*
X163817035Y-98291988D01*
X164302530Y-98226117D01*
X164820359Y-98247555D01*
X164988559Y-98274348D01*
X165438570Y-98407506D01*
X165840140Y-98618265D01*
X166188275Y-98898514D01*
X166477980Y-99240140D01*
X166704260Y-99635032D01*
X166862122Y-100075080D01*
X166946571Y-100552169D01*
X166948339Y-100700262D01*
X166952612Y-101058190D01*
X166875252Y-101585031D01*
G37*
G36*
X175127830Y-92912266D02*
G01*
X174467136Y-92883324D01*
X174467136Y-92247100D01*
X175127830Y-92218158D01*
X175127830Y-92912266D01*
G37*
G36*
X180613612Y-92907794D02*
G01*
X179919504Y-92907794D01*
X179933976Y-92577447D01*
X179948447Y-92247100D01*
X180584670Y-92247100D01*
X180613612Y-92907794D01*
G37*
X162166000Y-115375000D02*
X151946000Y-115375000D01*
X162166000Y-118035000D02*
X162166000Y-115375000D01*
X162166000Y-118035000D02*
X151946000Y-118035000D01*
X163436000Y-118035000D02*
X164766000Y-118035000D01*
X151946000Y-118035000D02*
X151946000Y-115375000D01*
X164766000Y-118035000D02*
X164766000Y-116705000D01*
M02*
