G04 #@! TF.GenerationSoftware,KiCad,Pcbnew,7.0.7-146-g6b43bb8fe3*
G04 #@! TF.CreationDate,2023-10-06T16:17:06+01:00*
G04 #@! TF.ProjectId,A3010PoduleCarrierPlate,41333031-3050-46f6-9475-6c6543617272,01a*
G04 #@! TF.SameCoordinates,Original*
G04 #@! TF.FileFunction,Legend,Bot*
G04 #@! TF.FilePolarity,Positive*
%FSLAX46Y46*%
G04 Gerber Fmt 4.6, Leading zero omitted, Abs format (unit mm)*
G04 Created by KiCad (PCBNEW 7.0.7-146-g6b43bb8fe3) date 2023-10-06 16:17:06*
%MOMM*%
%LPD*%
G01*
G04 APERTURE LIST*
%ADD10C,0.150000*%
G04 APERTURE END LIST*
D10*
X222665048Y-99999819D02*
X222665048Y-100714104D01*
X222665048Y-100714104D02*
X222712667Y-100856961D01*
X222712667Y-100856961D02*
X222807905Y-100952200D01*
X222807905Y-100952200D02*
X222950762Y-100999819D01*
X222950762Y-100999819D02*
X223046000Y-100999819D01*
X221712667Y-100999819D02*
X222188857Y-100999819D01*
X222188857Y-100999819D02*
X222188857Y-99999819D01*
X220807905Y-100904580D02*
X220855524Y-100952200D01*
X220855524Y-100952200D02*
X220998381Y-100999819D01*
X220998381Y-100999819D02*
X221093619Y-100999819D01*
X221093619Y-100999819D02*
X221236476Y-100952200D01*
X221236476Y-100952200D02*
X221331714Y-100856961D01*
X221331714Y-100856961D02*
X221379333Y-100761723D01*
X221379333Y-100761723D02*
X221426952Y-100571247D01*
X221426952Y-100571247D02*
X221426952Y-100428390D01*
X221426952Y-100428390D02*
X221379333Y-100237914D01*
X221379333Y-100237914D02*
X221331714Y-100142676D01*
X221331714Y-100142676D02*
X221236476Y-100047438D01*
X221236476Y-100047438D02*
X221093619Y-99999819D01*
X221093619Y-99999819D02*
X220998381Y-99999819D01*
X220998381Y-99999819D02*
X220855524Y-100047438D01*
X220855524Y-100047438D02*
X220807905Y-100095057D01*
X220093619Y-99999819D02*
X220093619Y-100714104D01*
X220093619Y-100714104D02*
X220141238Y-100856961D01*
X220141238Y-100856961D02*
X220236476Y-100952200D01*
X220236476Y-100952200D02*
X220379333Y-100999819D01*
X220379333Y-100999819D02*
X220474571Y-100999819D01*
X219141238Y-100999819D02*
X219617428Y-100999819D01*
X219617428Y-100999819D02*
X219617428Y-99999819D01*
X218236476Y-100904580D02*
X218284095Y-100952200D01*
X218284095Y-100952200D02*
X218426952Y-100999819D01*
X218426952Y-100999819D02*
X218522190Y-100999819D01*
X218522190Y-100999819D02*
X218665047Y-100952200D01*
X218665047Y-100952200D02*
X218760285Y-100856961D01*
X218760285Y-100856961D02*
X218807904Y-100761723D01*
X218807904Y-100761723D02*
X218855523Y-100571247D01*
X218855523Y-100571247D02*
X218855523Y-100428390D01*
X218855523Y-100428390D02*
X218807904Y-100237914D01*
X218807904Y-100237914D02*
X218760285Y-100142676D01*
X218760285Y-100142676D02*
X218665047Y-100047438D01*
X218665047Y-100047438D02*
X218522190Y-99999819D01*
X218522190Y-99999819D02*
X218426952Y-99999819D01*
X218426952Y-99999819D02*
X218284095Y-100047438D01*
X218284095Y-100047438D02*
X218236476Y-100095057D01*
X217522190Y-99999819D02*
X217522190Y-100714104D01*
X217522190Y-100714104D02*
X217569809Y-100856961D01*
X217569809Y-100856961D02*
X217665047Y-100952200D01*
X217665047Y-100952200D02*
X217807904Y-100999819D01*
X217807904Y-100999819D02*
X217903142Y-100999819D01*
X216569809Y-100999819D02*
X217045999Y-100999819D01*
X217045999Y-100999819D02*
X217045999Y-99999819D01*
X215665047Y-100904580D02*
X215712666Y-100952200D01*
X215712666Y-100952200D02*
X215855523Y-100999819D01*
X215855523Y-100999819D02*
X215950761Y-100999819D01*
X215950761Y-100999819D02*
X216093618Y-100952200D01*
X216093618Y-100952200D02*
X216188856Y-100856961D01*
X216188856Y-100856961D02*
X216236475Y-100761723D01*
X216236475Y-100761723D02*
X216284094Y-100571247D01*
X216284094Y-100571247D02*
X216284094Y-100428390D01*
X216284094Y-100428390D02*
X216236475Y-100237914D01*
X216236475Y-100237914D02*
X216188856Y-100142676D01*
X216188856Y-100142676D02*
X216093618Y-100047438D01*
X216093618Y-100047438D02*
X215950761Y-99999819D01*
X215950761Y-99999819D02*
X215855523Y-99999819D01*
X215855523Y-99999819D02*
X215712666Y-100047438D01*
X215712666Y-100047438D02*
X215665047Y-100095057D01*
X214950761Y-99999819D02*
X214950761Y-100714104D01*
X214950761Y-100714104D02*
X214998380Y-100856961D01*
X214998380Y-100856961D02*
X215093618Y-100952200D01*
X215093618Y-100952200D02*
X215236475Y-100999819D01*
X215236475Y-100999819D02*
X215331713Y-100999819D01*
X213998380Y-100999819D02*
X214474570Y-100999819D01*
X214474570Y-100999819D02*
X214474570Y-99999819D01*
X213093618Y-100904580D02*
X213141237Y-100952200D01*
X213141237Y-100952200D02*
X213284094Y-100999819D01*
X213284094Y-100999819D02*
X213379332Y-100999819D01*
X213379332Y-100999819D02*
X213522189Y-100952200D01*
X213522189Y-100952200D02*
X213617427Y-100856961D01*
X213617427Y-100856961D02*
X213665046Y-100761723D01*
X213665046Y-100761723D02*
X213712665Y-100571247D01*
X213712665Y-100571247D02*
X213712665Y-100428390D01*
X213712665Y-100428390D02*
X213665046Y-100237914D01*
X213665046Y-100237914D02*
X213617427Y-100142676D01*
X213617427Y-100142676D02*
X213522189Y-100047438D01*
X213522189Y-100047438D02*
X213379332Y-99999819D01*
X213379332Y-99999819D02*
X213284094Y-99999819D01*
X213284094Y-99999819D02*
X213141237Y-100047438D01*
X213141237Y-100047438D02*
X213093618Y-100095057D01*
M02*
