G04 #@! TF.GenerationSoftware,KiCad,Pcbnew,7.0.7-146-g6b43bb8fe3*
G04 #@! TF.CreationDate,2023-10-06T16:17:05+01:00*
G04 #@! TF.ProjectId,A3010PoduleCarrierPlate,41333031-3050-46f6-9475-6c6543617272,01a*
G04 #@! TF.SameCoordinates,Original*
G04 #@! TF.FileFunction,Copper,L1,Top*
G04 #@! TF.FilePolarity,Positive*
%FSLAX46Y46*%
G04 Gerber Fmt 4.6, Leading zero omitted, Abs format (unit mm)*
G04 Created by KiCad (PCBNEW 7.0.7-146-g6b43bb8fe3) date 2023-10-06 16:17:05*
%MOMM*%
%LPD*%
G01*
G04 APERTURE LIST*
G04 APERTURE END LIST*
G04 #@! TA.AperFunction,NonConductor*
G36*
X223977621Y-74575502D02*
G01*
X224024114Y-74629158D01*
X224035500Y-74681500D01*
X224035500Y-102408500D01*
X224015498Y-102476621D01*
X223961842Y-102523114D01*
X223909500Y-102534500D01*
X71182500Y-102534500D01*
X71114379Y-102514498D01*
X71067886Y-102460842D01*
X71056500Y-102408500D01*
X71056500Y-93545000D01*
X74940551Y-93545000D01*
X74960317Y-93796147D01*
X75019126Y-94041109D01*
X75069349Y-94162357D01*
X75115534Y-94273859D01*
X75224742Y-94452070D01*
X75247165Y-94488660D01*
X75247166Y-94488662D01*
X75410775Y-94680224D01*
X75602337Y-94843833D01*
X75602341Y-94843836D01*
X75817141Y-94975466D01*
X76049889Y-95071873D01*
X76294852Y-95130683D01*
X76447155Y-95142669D01*
X76483115Y-95145500D01*
X76483118Y-95145500D01*
X76608885Y-95145500D01*
X76642692Y-95142839D01*
X76797148Y-95130683D01*
X77042111Y-95071873D01*
X77274859Y-94975466D01*
X77489659Y-94843836D01*
X77681224Y-94680224D01*
X77844836Y-94488659D01*
X77976466Y-94273859D01*
X78072873Y-94041111D01*
X78131683Y-93796148D01*
X78151449Y-93545000D01*
X78131683Y-93293852D01*
X78072873Y-93048889D01*
X77976466Y-92816141D01*
X77844836Y-92601341D01*
X77844833Y-92601337D01*
X77681224Y-92409775D01*
X77666412Y-92397124D01*
X178791754Y-92397124D01*
X178801743Y-92988459D01*
X178851629Y-93577769D01*
X178941187Y-94162368D01*
X179014006Y-94488659D01*
X179070006Y-94739587D01*
X179237497Y-95306787D01*
X179442898Y-95861391D01*
X179442899Y-95861391D01*
X179442901Y-95861397D01*
X179468448Y-95918258D01*
X179685275Y-96400867D01*
X179685276Y-96400867D01*
X179685277Y-96400869D01*
X179943589Y-96885367D01*
X179963520Y-96922749D01*
X180276359Y-97424654D01*
X180622367Y-97904291D01*
X180999967Y-98359477D01*
X181206972Y-98577246D01*
X181407433Y-98788131D01*
X181407434Y-98788132D01*
X181629175Y-98991896D01*
X181842911Y-99188303D01*
X182304410Y-99558161D01*
X182789825Y-99896020D01*
X183050521Y-100052462D01*
X183296942Y-100200338D01*
X183296943Y-100200338D01*
X183823445Y-100469726D01*
X184096443Y-100586878D01*
X184366940Y-100702958D01*
X184816511Y-100860877D01*
X184924928Y-100898961D01*
X184924930Y-100898961D01*
X184924940Y-100898965D01*
X185227282Y-100982720D01*
X185494881Y-101056851D01*
X185890558Y-101138165D01*
X186074197Y-101175904D01*
X186074198Y-101175904D01*
X186261876Y-101201418D01*
X186660221Y-101255573D01*
X187250291Y-101295500D01*
X187250294Y-101295500D01*
X187693807Y-101295500D01*
X188137087Y-101280520D01*
X188536717Y-101239881D01*
X188725466Y-101220688D01*
X188725470Y-101220687D01*
X188725473Y-101220687D01*
X188885583Y-101193383D01*
X189308464Y-101121270D01*
X189308464Y-101121271D01*
X189883434Y-100982719D01*
X190098841Y-100915133D01*
X190447725Y-100805671D01*
X190447738Y-100805666D01*
X190447739Y-100805666D01*
X190998778Y-100590932D01*
X190998775Y-100590932D01*
X190998781Y-100590931D01*
X191534082Y-100339478D01*
X191534084Y-100339476D01*
X191534090Y-100339474D01*
X192051180Y-100052466D01*
X192051181Y-100052465D01*
X192051187Y-100052462D01*
X192349018Y-99859761D01*
X192547735Y-99731191D01*
X192547735Y-99731190D01*
X192547736Y-99731190D01*
X193021463Y-99377130D01*
X193021466Y-99377128D01*
X193470206Y-98991897D01*
X193595644Y-98868560D01*
X193891920Y-98577246D01*
X194222893Y-98204632D01*
X194284675Y-98135077D01*
X194636986Y-97679929D01*
X203745500Y-97679929D01*
X203779317Y-97904291D01*
X203785720Y-97946770D01*
X203785722Y-97946782D01*
X203865258Y-98204632D01*
X203865263Y-98204644D01*
X203982350Y-98447776D01*
X203982354Y-98447783D01*
X204070621Y-98577246D01*
X204134365Y-98670741D01*
X204317915Y-98868561D01*
X204528898Y-99036815D01*
X204528901Y-99036817D01*
X204762597Y-99171741D01*
X204762601Y-99171742D01*
X204762602Y-99171743D01*
X205013805Y-99270334D01*
X205276897Y-99330383D01*
X205429595Y-99341825D01*
X205478621Y-99345500D01*
X205478624Y-99345500D01*
X205613379Y-99345500D01*
X205658730Y-99342101D01*
X205815103Y-99330383D01*
X206078195Y-99270334D01*
X206329398Y-99171743D01*
X206329400Y-99171741D01*
X206329402Y-99171741D01*
X206446250Y-99104279D01*
X206563102Y-99036815D01*
X206774085Y-98868561D01*
X206957635Y-98670741D01*
X207109651Y-98447775D01*
X207152173Y-98359477D01*
X207226734Y-98204650D01*
X207226735Y-98204646D01*
X207226738Y-98204641D01*
X207306280Y-97946772D01*
X207346500Y-97679929D01*
X207346500Y-97410071D01*
X207306280Y-97143228D01*
X207306277Y-97143217D01*
X207226741Y-96885367D01*
X207226736Y-96885355D01*
X207120213Y-96664159D01*
X207109651Y-96642226D01*
X207109648Y-96642222D01*
X207109645Y-96642216D01*
X206957639Y-96419265D01*
X206957635Y-96419259D01*
X206774085Y-96221439D01*
X206563102Y-96053185D01*
X206563097Y-96053182D01*
X206563098Y-96053182D01*
X206329402Y-95918258D01*
X206329394Y-95918255D01*
X206078193Y-95819665D01*
X205815106Y-95759617D01*
X205613379Y-95744500D01*
X205613376Y-95744500D01*
X205478624Y-95744500D01*
X205478621Y-95744500D01*
X205276893Y-95759617D01*
X205013806Y-95819665D01*
X204762605Y-95918255D01*
X204762597Y-95918258D01*
X204528901Y-96053182D01*
X204317914Y-96221439D01*
X204134364Y-96419260D01*
X204134360Y-96419265D01*
X203982350Y-96642222D01*
X203982345Y-96642230D01*
X203865265Y-96885349D01*
X203865258Y-96885367D01*
X203785722Y-97143217D01*
X203785720Y-97143226D01*
X203785720Y-97143228D01*
X203745500Y-97410071D01*
X203745500Y-97679929D01*
X194636986Y-97679929D01*
X194646687Y-97667396D01*
X194646686Y-97667396D01*
X194646688Y-97667394D01*
X194976301Y-97176342D01*
X195272010Y-96664158D01*
X195392139Y-96419259D01*
X195532464Y-96133187D01*
X195756484Y-95585830D01*
X195756484Y-95585831D01*
X195943037Y-95024609D01*
X195943036Y-95024610D01*
X195943038Y-95024604D01*
X196091279Y-94452066D01*
X196168522Y-94041111D01*
X196200528Y-93870834D01*
X196209400Y-93796147D01*
X196239233Y-93545000D01*
X216940551Y-93545000D01*
X216960317Y-93796147D01*
X217019126Y-94041109D01*
X217069349Y-94162357D01*
X217115534Y-94273859D01*
X217224742Y-94452070D01*
X217247165Y-94488660D01*
X217247166Y-94488662D01*
X217410775Y-94680224D01*
X217602337Y-94843833D01*
X217602341Y-94843836D01*
X217817141Y-94975466D01*
X218049889Y-95071873D01*
X218294852Y-95130683D01*
X218447155Y-95142669D01*
X218483115Y-95145500D01*
X218483118Y-95145500D01*
X218608885Y-95145500D01*
X218642692Y-95142839D01*
X218797148Y-95130683D01*
X219042111Y-95071873D01*
X219274859Y-94975466D01*
X219489659Y-94843836D01*
X219681224Y-94680224D01*
X219844836Y-94488659D01*
X219976466Y-94273859D01*
X220072873Y-94041111D01*
X220131683Y-93796148D01*
X220151449Y-93545000D01*
X220131683Y-93293852D01*
X220072873Y-93048889D01*
X219976466Y-92816141D01*
X219844836Y-92601341D01*
X219844833Y-92601337D01*
X219681224Y-92409775D01*
X219489662Y-92246166D01*
X219489660Y-92246165D01*
X219489659Y-92246164D01*
X219274859Y-92114534D01*
X219243506Y-92101547D01*
X219042109Y-92018126D01*
X218874536Y-91977896D01*
X218797148Y-91959317D01*
X218750081Y-91955612D01*
X218608885Y-91944500D01*
X218608882Y-91944500D01*
X218483118Y-91944500D01*
X218483115Y-91944500D01*
X218294852Y-91959317D01*
X218049890Y-92018126D01*
X217817142Y-92114533D01*
X217602339Y-92246165D01*
X217602337Y-92246166D01*
X217410775Y-92409775D01*
X217247166Y-92601337D01*
X217247165Y-92601339D01*
X217115533Y-92816142D01*
X217019126Y-93048890D01*
X216960317Y-93293852D01*
X216940551Y-93545000D01*
X196239233Y-93545000D01*
X196270291Y-93283535D01*
X196300246Y-92692876D01*
X196290257Y-92101541D01*
X196240371Y-91512231D01*
X196150813Y-90927632D01*
X196021994Y-90350413D01*
X195937830Y-90065396D01*
X195854503Y-89783213D01*
X195649102Y-89228609D01*
X195649101Y-89228609D01*
X195649099Y-89228603D01*
X195555273Y-89019768D01*
X195406725Y-88689133D01*
X195406724Y-88689133D01*
X195406723Y-88689131D01*
X195128481Y-88167252D01*
X194815642Y-87665348D01*
X194815641Y-87665346D01*
X194815641Y-87665347D01*
X194815640Y-87665346D01*
X194469633Y-87185709D01*
X194092033Y-86730523D01*
X193684565Y-86301867D01*
X193466827Y-86101782D01*
X193249088Y-85901696D01*
X193013478Y-85712872D01*
X192787590Y-85531839D01*
X192302175Y-85193980D01*
X191997953Y-85011418D01*
X191795058Y-84889662D01*
X191795057Y-84889662D01*
X191268555Y-84620274D01*
X190986111Y-84499068D01*
X190725060Y-84387042D01*
X190275488Y-84229122D01*
X190167072Y-84191039D01*
X190167069Y-84191038D01*
X190167060Y-84191035D01*
X189823715Y-84095921D01*
X189597119Y-84033149D01*
X189201441Y-83951834D01*
X189017803Y-83914096D01*
X189017802Y-83914096D01*
X188830124Y-83888581D01*
X188431779Y-83834427D01*
X187841709Y-83794500D01*
X187398193Y-83794500D01*
X186954913Y-83809480D01*
X186555282Y-83850118D01*
X186366534Y-83869312D01*
X186366529Y-83869312D01*
X186366527Y-83869313D01*
X186206416Y-83896616D01*
X185783535Y-83968729D01*
X185783536Y-83968729D01*
X185208566Y-84107281D01*
X184993158Y-84174866D01*
X184644275Y-84284329D01*
X184644262Y-84284334D01*
X184644261Y-84284334D01*
X184242351Y-84440953D01*
X184093219Y-84499069D01*
X183557918Y-84750522D01*
X183557915Y-84750523D01*
X183557910Y-84750526D01*
X183307235Y-84889662D01*
X183040813Y-85037538D01*
X182799021Y-85193980D01*
X182544265Y-85358809D01*
X182544264Y-85358810D01*
X182312755Y-85531838D01*
X182070534Y-85712872D01*
X181621794Y-86098103D01*
X181200083Y-86512750D01*
X180807325Y-86954923D01*
X180445313Y-87422604D01*
X180445314Y-87422604D01*
X180445312Y-87422606D01*
X180115699Y-87913658D01*
X179969288Y-88167251D01*
X179819991Y-88425841D01*
X179819990Y-88425842D01*
X179559536Y-88956813D01*
X179335517Y-89504169D01*
X179335516Y-89504170D01*
X179335516Y-89504169D01*
X179148963Y-90065391D01*
X179148964Y-90065390D01*
X179000722Y-90637930D01*
X178891472Y-91219166D01*
X178891471Y-91219175D01*
X178821709Y-91806465D01*
X178791754Y-92397124D01*
X77666412Y-92397124D01*
X77489662Y-92246166D01*
X77489660Y-92246165D01*
X77489659Y-92246164D01*
X77274859Y-92114534D01*
X77243506Y-92101547D01*
X77042109Y-92018126D01*
X76874536Y-91977896D01*
X76797148Y-91959317D01*
X76750081Y-91955612D01*
X76608885Y-91944500D01*
X76608882Y-91944500D01*
X76483118Y-91944500D01*
X76483115Y-91944500D01*
X76294852Y-91959317D01*
X76049890Y-92018126D01*
X75817142Y-92114533D01*
X75602339Y-92246165D01*
X75602337Y-92246166D01*
X75410775Y-92409775D01*
X75247166Y-92601337D01*
X75247165Y-92601339D01*
X75115533Y-92816142D01*
X75019126Y-93048890D01*
X74960317Y-93293852D01*
X74940551Y-93545000D01*
X71056500Y-93545000D01*
X71056500Y-74681500D01*
X71076502Y-74613379D01*
X71130158Y-74566886D01*
X71182500Y-74555500D01*
X223909500Y-74555500D01*
X223977621Y-74575502D01*
G37*
G04 #@! TD.AperFunction*
M02*
