M48
; DRILL file {KiCad (6.0.7)} date Sun Nov 13 23:20:23 2022
; FORMAT={-:-/ absolute / metric / decimal}
; #@! TF.CreationDate,2022-11-13T23:20:23+00:00
; #@! TF.GenerationSoftware,Kicad,Pcbnew,(6.0.7)
; #@! TF.FileFunction,MixedPlating,1,2
FMAT,2
METRIC
; #@! TA.AperFunction,Plated,PTH,ViaDrill
T1C0.400
; #@! TA.AperFunction,Plated,PTH,ComponentDrill
T2C0.900
; #@! TA.AperFunction,Plated,PTH,ComponentDrill
T3C1.000
; #@! TA.AperFunction,Plated,PTH,ComponentDrill
T4C1.400
; #@! TA.AperFunction,Plated,PTH,ComponentDrill
T5C1.600
; #@! TA.AperFunction,NonPlated,NPTH,ComponentDrill
T6C2.700
; #@! TA.AperFunction,NonPlated,NPTH,ComponentDrill
T7C3.250
; #@! TA.AperFunction,NonPlated,NPTH,ComponentDrill
T8C4.000
%
G90
G05
T1
X122.796Y-88.765
X124.066Y-90.035
X125.336Y-91.305
X126.606Y-92.575
X127.876Y-93.845
T2
X95.276Y-57.55
X97.816Y-57.55
X108.274Y-70.927
X110.814Y-70.927
X112.084Y-68.387
X113.354Y-70.927
X114.624Y-68.387
X115.894Y-70.927
X117.164Y-68.387
T3
X75.806Y-110.355
X78.346Y-110.355
X80.886Y-110.355
X85.966Y-106.545
X85.966Y-116.705
X85.966Y-119.245
X88.506Y-106.545
X88.506Y-116.705
X88.506Y-119.245
X91.046Y-106.545
X91.046Y-116.705
X91.046Y-119.245
X93.586Y-106.545
X93.586Y-116.705
X93.586Y-119.245
X96.126Y-106.545
X96.126Y-116.705
X96.126Y-119.245
X98.666Y-106.545
X98.666Y-116.705
X98.666Y-119.245
X101.206Y-106.545
X101.206Y-116.705
X101.206Y-119.245
X103.746Y-106.545
X103.746Y-116.705
X103.746Y-119.245
X106.286Y-106.545
X106.286Y-116.705
X106.286Y-119.245
X108.826Y-106.545
X108.826Y-116.705
X108.826Y-119.245
X109.466Y-65.85
X111.366Y-106.545
X111.366Y-116.705
X111.366Y-119.245
X112.006Y-60.77
X112.006Y-63.31
X112.006Y-65.85
X113.906Y-106.545
X113.906Y-116.705
X113.906Y-119.245
X114.546Y-60.77
X114.546Y-63.31
X116.446Y-106.545
X116.446Y-116.705
X116.446Y-119.245
X117.086Y-65.85
X118.986Y-106.545
X118.986Y-116.705
X118.986Y-119.245
X119.626Y-65.85
X121.526Y-106.545
X121.526Y-116.705
X121.526Y-119.245
X124.066Y-106.545
X124.066Y-116.705
X124.066Y-119.245
X126.606Y-106.545
X126.606Y-116.705
X126.606Y-119.245
X136.131Y-116.705
X136.131Y-119.245
X138.671Y-116.705
X138.671Y-119.245
X139.306Y-67.175
X141.211Y-116.705
X141.211Y-119.245
X141.846Y-67.175
X143.751Y-116.705
X143.751Y-119.245
X144.386Y-67.175
X144.386Y-110.355
X146.291Y-116.705
X146.291Y-119.245
X146.926Y-67.175
X146.926Y-110.355
X149.466Y-67.175
X149.466Y-110.355
X152.006Y-67.175
X152.006Y-110.355
X153.276Y-116.705
X153.276Y-119.245
X154.546Y-67.175
X154.546Y-110.355
X155.816Y-116.705
X155.816Y-119.245
X157.086Y-67.175
X158.356Y-116.705
X158.356Y-119.245
X159.626Y-67.175
X160.896Y-116.705
X160.896Y-119.245
X162.166Y-67.175
X163.436Y-116.705
X163.436Y-119.245
X164.706Y-67.175
X167.246Y-67.175
X169.786Y-67.175
X172.326Y-67.175
X172.326Y-106.545
X172.326Y-116.705
X172.326Y-119.245
X174.866Y-67.175
X174.866Y-106.545
X174.866Y-116.705
X174.866Y-119.245
X177.406Y-67.175
X177.406Y-106.545
X177.406Y-116.705
X177.406Y-119.245
X179.946Y-67.175
X179.946Y-106.545
X179.946Y-116.705
X179.946Y-119.245
X182.486Y-106.545
X182.486Y-116.705
X182.486Y-119.245
X183.756Y-76.827
X185.026Y-106.545
X185.026Y-116.705
X185.026Y-119.245
X186.296Y-76.827
X187.566Y-106.545
X187.566Y-116.705
X187.566Y-119.245
X190.106Y-106.545
X190.106Y-116.705
X190.106Y-119.245
X192.646Y-106.545
X192.646Y-116.705
X192.646Y-119.245
X195.186Y-106.545
X195.186Y-116.705
X195.186Y-119.245
X197.726Y-106.545
X197.726Y-116.705
X197.726Y-119.245
X200.266Y-106.545
X200.266Y-116.705
X200.266Y-119.245
X202.806Y-106.545
X202.806Y-116.705
X202.806Y-119.245
X205.346Y-106.545
X205.346Y-116.705
X205.346Y-119.245
X207.886Y-106.545
X207.886Y-116.705
X207.886Y-119.245
X210.426Y-106.545
X210.426Y-116.705
X210.426Y-119.245
X212.966Y-106.545
X212.966Y-116.705
X212.966Y-119.245
T4
X107.046Y-65.85
X109.546Y-55.85
X109.546Y-68.35
X112.046Y-55.85
X114.546Y-65.85
X117.046Y-55.85
X119.546Y-55.85
X119.546Y-68.35
X122.046Y-65.85
T5
X104.949Y-58.987
X120.489Y-58.987
T6
X83.546Y-57.15
X158.806Y-63.175
X158.806Y-112.175
X216.806Y-63.175
X216.806Y-112.175
X225.606Y-57.15
T7
X107.004Y-62.037
X118.434Y-62.037
T8
X138.316Y-100.175
X209.426Y-90.035
T0
M30
